<?xml version="1.0" encoding="utf-8"?>
<!-- Generator: Adobe Illustrator 23.0.2, SVG Export Plug-In . SVG Version: 6.00 Build 0)  -->
<svg version="1.1" id="Layer_1" xmlns="http://www.w3.org/2000/svg" xmlns:xlink="http://www.w3.org/1999/xlink" x="0px" y="0px"
	 viewBox="0 0 512 512" style="enable-background:new 0 0 512 512;" xml:space="preserve">
<style type="text/css">
	.st0{fill:#D3B1D3;}
	.st1{fill:#A98FAA;}
	.st2{fill:#7B508D;}
	.st3{enable-background:new    ;}
	.st4{fill:#FFFFFF;}
</style>
<polygon class="st0" points="338.9,0 445.9,107 445.9,512 59.2,512 59.2,0 "/>
<polygon class="st1" points="445.9,107 338.8,107 338.8,0 "/>
<polygon class="st2" points="407.5,422.9 22,422.9 22,293 490,293 "/>
<polygon class="st1" points="59.2,460.1 59.2,422.9 22,422.9 "/>
<g>
	<g class="st3">
		<path class="st4" d="M166.8,376.1l-5.3,15.6h-14.4l22.9-67.6h18.4l23.9,67.6h-15.4l-5.6-15.6H166.8z M188.4,364.2
			c-4.8-14.3-7.9-23.4-9.5-29.4h-0.1c-1.7,6.7-5,17.3-8.9,29.4H188.4z"/>
		<path class="st4" d="M268.1,362.6h-32.3v17.2h35.6l-1.7,12h-48.1v-67.6h47.9v12h-33.7v14.5h32.3V362.6z"/>
		<path class="st4" d="M282.2,324.2h28c14.4,0,24.1,8.1,24.1,20.9c0,14.7-11.1,21.4-24.4,21.4h-13v25.2h-14.6V324.2z M296.8,354.9
			h11.2c6.8,0,11.5-2.6,11.5-9.5c0-7-5-9.6-11.2-9.6h-11.5V354.9z"/>
	</g>
</g>
</svg>
