<?xml version="1.0" encoding="iso-8859-1"?>
<!-- Generator: Adobe Illustrator 19.0.0, SVG Export Plug-In . SVG Version: 6.00 Build 0)  -->
<svg version="1.1" id="Capa_1" xmlns="http://www.w3.org/2000/svg" xmlns:xlink="http://www.w3.org/1999/xlink" x="0px" y="0px"
	 viewBox="0 0 416 416" style="enable-background:new 0 0 416 416;" xml:space="preserve">
<path style="fill:#F4E8FF;" d="M320,8H120c-17.672,0-32,14.328-32,32v8H40C22.328,48,8,62.328,8,80v40c0,17.672,14.328,32,32,32h48
	v56v104v32c0,17.68,14.32,32,32,32h24h24c0,17.672,14.328,32,32,32h96c17.672,0,32-14.328,32-32h24h24c17.672,0,32-14.328,32-32V96
	v-8L328,8H320z M280,80c0-17.672-14.328-32-32-32C265.68,48,280,62.32,280,80z M280,120c0,17.68-14.32,32-32,32
	C265.672,152,280,137.672,280,120z"/>
<path style="fill:#DFBAFF;" d="M328,8h-8v56c0,17.672,14.328,32,32,32h56v-8L328,8z"/>
<g>
	<path style="fill:#C98CFF;" d="M280,80v40c0,17.672-14.328,32-32,32H40c-17.672,0-32-14.328-32-32V80c0-17.672,14.328-32,32-32h208
		C265.672,48,280,62.328,280,80z"/>
	<path style="fill:#C98CFF;" d="M296,408h-96c-17.672,0-32-14.328-32-32v-80c0-17.672,14.328-32,32-32h96c17.672,0,32,14.328,32,32
		v80C328,393.672,313.672,408,296,408z"/>
</g>
<path d="M72.704,115.632h15.152l2.664,11.496h15.152l-16.488-54.12h-17.32l-16.488,54.12h14.656L72.704,115.632z M76.2,100.816
	c1.336-5.16,2.664-11.656,3.832-17.152h0.336c1.336,5.416,2.664,11.992,4,17.152l0.912,3.752h-9.992L76.2,100.816z"/>
<polygon points="146.608,115.136 125.128,115.136 125.128,105.48 142.776,105.48 142.776,93.488 125.128,93.488 125.128,85 
	145.776,85 145.776,73.008 110.808,73.008 110.808,127.128 146.608,127.128 "/>
<path d="M171.384,109.968h6.664c11.328,0,21.648-5.744,21.648-18.984c0-13.648-9.992-17.976-21.648-17.976h-20.976v54.12h14.32
	v-17.16H171.384z M171.384,84.328h6c5.328,0,8.328,1.832,8.328,6.656s-2.664,7.664-8.328,7.664h-6V84.328z"/>
<rect x="32" y="112" width="16" height="16"/>
<path d="M333.656,2.344C332.16,0.84,330.12,0,328,0h-8H120C97.944,0,80,17.944,80,40H40C17.944,40,0,57.944,0,80v40
	c0,22.056,17.944,40,40,40h40v184c0,22.056,17.944,40,40,40h24c4.416,0,8-3.576,8-8s-3.584-8-8-8h-24c-13.232,0-24-10.768-24-24V160
	h152c22.056,0,40-17.944,40-40V80c0-22.056-17.944-40-40-40H96c0-13.232,10.768-24,24-24h192v48c0,22.056,17.944,40,40,40h48v240
	c0,13.232-10.768,24-24,24h-24c-4.416,0-8,3.576-8,8s3.584,8,8,8h24c22.056,0,40-17.944,40-40V96v-8c0-2.128-0.84-4.16-2.344-5.656
	L333.656,2.344z M248,56c13.232,0,24,10.768,24,24v40c0,13.232-10.768,24-24,24H40c-13.232,0-24-10.768-24-24V80
	c0-13.232,10.768-24,24-24H248z M352,88c-13.232,0-24-10.768-24-24V19.312L396.688,88H352z"/>
<path d="M296,416c22.056,0,40-17.944,40-40v-80c0-22.056-17.944-40-40-40h-96c-22.056,0-40,17.944-40,40v80
	c0,22.056,17.944,40,40,40H296z M176,376v-80c0-13.232,10.768-24,24-24h96c13.232,0,24,10.768,24,24v80c0,13.232-10.768,24-24,24
	h-96C186.768,400,176,389.232,176,376z"/>
<polygon points="252.568,360.128 248,360.12 229.784,360.064 248,328.184 272,370.184 275.576,376.064 293.784,376.064 248,295.936 
	202.216,376.064 262.128,376.064 "/>
<g>
</g>
<g>
</g>
<g>
</g>
<g>
</g>
<g>
</g>
<g>
</g>
<g>
</g>
<g>
</g>
<g>
</g>
<g>
</g>
<g>
</g>
<g>
</g>
<g>
</g>
<g>
</g>
<g>
</g>
</svg>
