<?xml version="1.0" encoding="utf-8"?>
<!-- Generator: Adobe Illustrator 23.0.3, SVG Export Plug-In . SVG Version: 6.00 Build 0)  -->
<svg version="1.1" id="레이어_1" xmlns="http://www.w3.org/2000/svg" xmlns:xlink="http://www.w3.org/1999/xlink" x="0px"
	 y="0px" viewBox="0 0 750 1300" style="enable-background:new 0 0 750 1300;" xml:space="preserve">
<style type="text/css">
	.st0{fill:#274992;}
	.st1{fill:none;stroke:#FFFFFF;stroke-width:3;stroke-linecap:square;stroke-miterlimit:10;}
	.st2{fill:#F5D0B7;enable-background:new    ;}
	.st3{fill:#162C56;}
	.st4{fill:#1E71D3;}
	.st5{clip-path:url(#SVGID_2_);}
	.st6{fill:none;stroke:#1B5EA8;stroke-width:31;stroke-linecap:round;stroke-miterlimit:10;}
	.st7{clip-path:url(#SVGID_2_);fill:none;stroke:#FFFFFF;stroke-width:14;stroke-linecap:square;stroke-miterlimit:10;}
	.st8{fill:none;stroke:#F5D0B7;stroke-width:65;stroke-linecap:round;stroke-linejoin:round;stroke-miterlimit:10;}
	.st9{fill:#FFFFFF;}
	.st10{fill:#24272D;}
	.st11{fill:#FFBA5F;}
	.st12{fill:#F5D0B7;}
	.st13{fill-rule:evenodd;clip-rule:evenodd;fill:none;stroke:#FFFFFF;stroke-width:3;stroke-linecap:square;stroke-miterlimit:10;}
</style>
<g>
	<path class="st0" d="M300.22,1121.85l44.4-365.38l20.96,96l-16.17,269.38h121.96l17.17-296c1.18-20.29-0.75-40.65-5.72-60.36
		l-64.55-256l-205.11-1.63L212.46,810l-31.2,311.85H300.22z"/>
	<line class="st1" x1="345.23" y1="764.4" x2="359" y2="620.14"/>
	<path class="st2" d="M579.14,238.69l-2.21-12.49c0,0-1.02-8.75-1.01-18.33c0.01-9.58,5.19-21.52-3.66-37.38
		c-8.84-15.85,8.95-6.29,13.53,1.21c3.81,6.25,3.85,20.33,8.18,24.98c2.94-2.1,4.77-4.59,4.77-4.59l29.98-50.29
		c0.96-1.69,3.01-2.4,4.81-1.68l2.03,0.82c2.14,0.86,3.08,3.37,2.02,5.4c-5.71,11-23.62,43.41-23,43.65l1.07,1.03l36.41-48.93
		c1.13-1.62,3.28-2.14,5.01-1.21l2.7,1.44c1.97,1.05,2.66,3.52,1.5,5.42c-7.01,11.7-34.04,49.4-33.41,49.66l1.38,1.06l34.68-38.9
		c1.19-1.7,3.51-2.15,5.25-1.05l2.08,1.33c1.82,1.15,2.36,3.57,1.19,5.38l-32.51,38.83l1.25,1.54l29.11-26.14
		c1.3-1.48,3.5-1.74,5.13-0.62l0.98,0.69c1.72,1.21,2.18,3.58,1.01,5.34c-4,6.07-17.35,17.02-27.35,29.76
		c-7.76,9.89-11.09,18.79-22.22,30.18c-4.7,4.83-12.26,9.9-16.4,12.75"/>
	<polygon class="st3" points="356.27,1121.85 333.22,1167.81 540.56,1167.81 454.19,1121.85 	"/>
	<polygon class="st3" points="188.28,1121.85 165.23,1167.81 372.58,1167.81 286.21,1121.85 	"/>
	<path class="st4" d="M515.08,342.92c0,0-79.03-28.7-180.51-26.47c-119.66,2.63-176.58,88.18-201,143.75
		c-9.73,22.14,6.33,47,30.5,47.19l108.96,0.86l145.23,1.23l25.44-85.74L546,429.79c28.97,1.71,54.89-17.87,61.16-46.21l28.65-129.57
		l-70.27-18.64L515.08,342.92z"/>
	<g>
		<defs>
			<path id="SVGID_1_" d="M515.08,342.92c0,0-79.03-28.7-180.51-26.47c-119.66,2.63-176.58,88.18-201,143.75
				c-9.73,22.14,6.33,47,30.5,47.19l108.96,0.86l145.23,1.23l25.44-85.74L546,429.79c28.97,1.71,54.89-17.87,61.16-46.21
				l28.65-129.57l-70.27-18.64L515.08,342.92z"/>
		</defs>
		<clipPath id="SVGID_2_">
			<use xlink:href="#SVGID_1_"  style="overflow:visible;"/>
		</clipPath>
		<g class="st5">
			<line class="st6" x1="161.44" y1="345.38" x2="227.87" y2="411.82"/>
			<line class="st6" x1="266.46" y1="356.24" x2="340.11" y2="282.6"/>
			<line class="st6" x1="387.25" y1="425" x2="342.06" y2="379.82"/>
			<line class="st6" x1="414.3" y1="352.36" x2="479.87" y2="286.79"/>
			<line class="st6" x1="496.39" y1="380.08" x2="571.89" y2="455.58"/>
			<line class="st6" x1="584.82" y1="346.21" x2="659.18" y2="271.84"/>
			<line class="st6" x1="576.21" y1="269.9" x2="496.63" y2="190.32"/>
			<line class="st6" x1="302.01" y1="430.82" x2="259.67" y2="473.15"/>
			<line class="st6" x1="161.51" y1="439.41" x2="88.32" y2="512.61"/>
			<line class="st6" x1="366.18" y1="492.72" x2="423" y2="549.54"/>
		</g>
		<line class="st7" x1="439.59" y1="503.53" x2="316.65" y2="501.48"/>
	</g>
	<line class="st8" x1="349.06" y1="208.69" x2="345.93" y2="322.97"/>
	<path class="st2" d="M367.07,291.41l6.08,0.13c30.13,0.64,53.43-26.26,48.49-55.99l-5.73-34.56
		c-3.82-23.04-23.63-40.01-46.99-40.25h0c-26.58-0.27-48.34,21.06-48.61,47.63l-0.35,34.43
		C319.69,269.18,340.7,290.85,367.07,291.41z"/>
	<path class="st2" d="M335.82,256.98L335.82,256.98c7.79-5.83,9.39-16.98,3.56-24.77l-6.02-8.04c-5.83-7.79-16.98-9.39-24.77-3.56
		l0,0c-7.79,5.83-9.39,16.98-3.56,24.77l6.02,8.04C316.88,261.21,328.03,262.81,335.82,256.98z"/>
	<line class="st1" x1="311.83" y1="234.19" x2="324" y2="246.92"/>
	<polyline class="st1" points="396.66,216.99 400.2,244.86 390.29,246.17 	"/>
	<path class="st9" d="M365.34,257.01c-2.87,6.71,0.24,14.47,6.94,17.35c6.71,2.87,14.47-0.24,17.35-6.94
		c2.87-6.71-4.13-9.02-10.83-11.89C372.09,252.65,368.21,250.3,365.34,257.01z"/>
	<path class="st10" d="M338.43,244.78l8.83-51.71l2.1-12.27c3.28,2.94,7.03,5.29,11.1,7.02c14.76,6.28,56.9-0.6,60.05-30.88
		c2.58-24.69-21.9-8.4-35.23-8.71c-20.94-0.49-36.45-11.37-63.4,6.55c-32.26,21.45-12.08,64.99-12.08,64.99
		S324.23,212.62,338.43,244.78z"/>
	<polygon class="st10" points="379.12,291.55 361,291.56 378.87,306.07 	"/>
	<circle class="st9" cx="372.33" cy="224.1" r="4.95"/>
	<circle class="st9" cx="408.3" cy="224.1" r="4.95"/>
	<path class="st11" d="M133.86,1167.34l-1.01-0.19c-14.64-2.75-24.28-16.86-21.52-31.5l80.61-428.58
		c2.75-14.64,16.86-24.28,31.5-21.52l1.01,0.19c14.64,2.75,24.28,16.86,21.52,31.5l-80.61,428.58
		C162.6,1160.45,148.5,1170.09,133.86,1167.34z"/>
	<path class="st11" d="M228.69,1106.33l-0.19,1.01c-2.75,14.64-16.86,24.28-31.5,21.52l-46.89-8.82
		c-14.64-2.75-24.28-16.86-21.52-31.5l0.19-1.01c2.75-14.64,16.86-24.28,31.5-21.52l46.89,8.82
		C221.81,1077.59,231.45,1091.69,228.69,1106.33z"/>
	<path class="st11" d="M275.64,1032.86l-0.19,1.01c-2.75,14.64-16.86,24.28-31.5,21.52l-62.1-11.68
		c-14.64-2.75-24.28-16.86-21.52-31.5l0.19-1.01c2.75-14.64,16.86-24.28,31.5-21.52l62.1,11.68
		C268.76,1004.12,278.4,1018.22,275.64,1032.86z"/>
	<g>
		<path class="st11" d="M240.84,561.76c3.71,0,7.47,0.35,11.19,1.05c32.43,6.1,53.84,37.44,47.74,69.86
			c-5.32,28.28-29.99,48.8-58.67,48.8c-3.71,0-7.48-0.35-11.2-1.05c-15.71-2.95-29.32-11.85-38.34-25.04
			c-9.02-13.2-12.36-29.11-9.4-44.82C187.48,582.29,212.16,561.76,240.84,561.76L240.84,561.76L240.84,561.76 M240.83,498.76
			c-57.92,0-109.49,41.16-120.58,100.15c-12.54,66.67,31.34,130.88,98.01,143.42c7.67,1.44,15.31,2.14,22.84,2.14
			c57.92,0,109.48-41.16,120.58-100.15c12.54-66.67-31.34-130.88-98.01-143.42C256,499.46,248.37,498.76,240.83,498.76
			L240.83,498.76z"/>
	</g>
	<path class="st12" d="M274.52,502.84l18.05,15.56c0,0-6.56,46.77,14.36,46.77c0,0-0.82,7.41,3.28,8.63s17.64-14.88,17.64-14.88
		s16.41-4.01,21.33-18.78c4.92-14.77,9.85-50.46,5.33-53.74s-52.1-10.26-52.1-10.26S282.32,476.15,274.52,502.84z"/>
	<line class="st1" x1="312" y1="471.23" x2="236.31" y2="432.36"/>
	<line class="st1" x1="251.5" y1="438.65" x2="302.54" y2="389.92"/>
	<line class="st1" x1="440.82" y1="442.41" x2="449.85" y2="406.92"/>
	<path class="st1" d="M314.15,514.54"/>
	<path class="st1" d="M306.94,565.18"/>
	<path class="st1" d="M333.85,508.67"/>
	<path class="st1" d="M326.63,559.31"/>
	<path class="st1" d="M344.27,504.12"/>
	<path class="st1" d="M337.05,554.76"/>
	<path class="st1" d="M274.15,504.86c0,0,1.38-28.7,39.23-33.01"/>
	<polyline class="st1" points="377.85,834.77 365.58,852.46 379.08,866.92 	"/>
	<path class="st13" d="M187.44,733.94c0,0,16.02,6.87,25.4,9.04"/>
	<line class="st1" x1="123.9" y1="1130.82" x2="136.21" y2="1066.41"/>
	<line class="st1" x1="139.28" y1="1053.28" x2="144.82" y2="1024.56"/>
</g>
</svg>
