<?xml version="1.0" encoding="utf-8"?>
<!-- Generator: Adobe Illustrator 23.0.2, SVG Export Plug-In . SVG Version: 6.00 Build 0)  -->
<svg version="1.1" id="Back" xmlns="http://www.w3.org/2000/svg" xmlns:xlink="http://www.w3.org/1999/xlink" x="0px" y="0px"
	 viewBox="0 0 1986 1352.92" style="enable-background:new 0 0 1986 1352.92;" xml:space="preserve">
<style type="text/css">
	.st0{fill:#E9EEF2;}
	.st1{fill:#F2F6F9;}
	.st2{fill:none;stroke:#F2F6F9;stroke-width:20;stroke-linecap:round;stroke-miterlimit:10;}
	.st3{fill:#F0F4F7;}
</style>
<g>
	<path class="st0" d="M943.31,841.67l-21.26-68.38c-4.31-13.84,8.43-26.96,22.4-23.06l107.99,30.18
		c16.55,4.62,18.17,27.44,2.45,34.37l-86.73,38.2C958.16,857.39,946.55,852.1,943.31,841.67z"/>
	<path class="st0" d="M320.19,409.5v-55.34c0-11.21,12.41-17.96,21.82-11.88l72.77,47.05c11.15,7.21,7.11,24.42-6.08,25.93
		l-72.77,8.29C327.54,424.51,320.19,417.94,320.19,409.5z"/>
	<path class="st1" d="M498.9,376.78l-81.46-24.4c-16.49-4.94-20.96-26.19-7.86-37.36l101.35-86.37
		c15.53-13.23,39.09,0.3,35.48,20.38L526.52,359.8C524.23,372.57,511.33,380.5,498.9,376.78z"/>
	<path class="st1" d="M1444.09,1010.99L1459.3,978c3.08-6.68,12.34-7.29,16.27-1.08l30.44,48.05c4.66,7.36-2.47,16.51-10.75,13.78
		l-45.65-15.07C1444.34,1021.96,1441.76,1016.02,1444.09,1010.99z"/>
	<path class="st0" d="M1537.23,377.5l11.24,32.76c2.28,6.63-3.7,13.15-10.51,11.46l-52.63-13.08c-8.06-2-9.17-13.01-1.67-16.58
		l41.39-19.68C1529.83,370.11,1535.52,372.5,1537.23,377.5z"/>
	<path class="st0" d="M1287.81,172.64l39.92,37.26c8.08,7.54,4.6,21.04-6.12,23.73l-82.93,20.81
		c-12.71,3.19-22.41-11.31-14.61-21.84l43.01-58.07C1272.03,167.84,1281.72,166.95,1287.81,172.64z"/>
	<path class="st1" d="M1503.01,481.81l-51.78,33.52c-14.06,9.1-32.87,1.08-36.03-15.37l-14.61-76.12
		c-3.91-20.38,18.48-35.54,35.95-24.33l66.39,42.6C1517.37,451.38,1517.42,472.48,1503.01,481.81z"/>
	<g>
		<path class="st2" d="M1492.23,830.32c-10.84,10.84-22.14-0.47-32.98,10.37c-10.84,10.84,0.47,22.14-10.37,32.98
			c-10.84,10.84-22.14-0.47-32.98,10.37c-10.84,10.84,0.47,22.14-10.37,32.98"/>
	</g>
	<circle class="st0" cx="1553.14" cy="906.71" r="59.81"/>
	<circle class="st0" cx="365.83" cy="253.79" r="29.87"/>
	<circle class="st0" cx="476.04" cy="866.95" r="26.15"/>
	<circle class="st1" cx="572.96" cy="840.79" r="38.75"/>
	<path class="st1" d="M1831.39,789.44h-564.86c0,0,38.53-141.13,117.72-147.33c46.7-3.65,69.99,52.09,116.35,52.09
		s72.65-130.72,163.2-130.72C1812.19,563.48,1831.39,789.44,1831.39,789.44z"/>
	<path class="st1" d="M117.7,1009.19h579.55c0,0-39.55-102.99-120.78-98.65c-81.22,4.34-71.81,34.88-119.38,34.88
		s-74.54-87.53-167.45-87.53C137.4,857.89,117.7,1009.19,117.7,1009.19z"/>
	<path class="st3" d="M954.97,1127.08H602.89c13.16-25.69,33.17-48.38,60.44-49.13c32.54-0.9,47.2,34.88,78.45,34.88
		c31.26,0,48.99-87.53,110.04-87.53C913.59,1025.29,942.15,1082.95,954.97,1127.08z"/>
</g>
</svg>
