<?xml version="1.0" encoding="utf-8"?>
<!-- Generator: Adobe Illustrator 23.0.2, SVG Export Plug-In . SVG Version: 6.00 Build 0)  -->
<svg version="1.1" id="Back" xmlns="http://www.w3.org/2000/svg" xmlns:xlink="http://www.w3.org/1999/xlink" x="0px" y="0px"
	 viewBox="0 0 1986 1352.92" style="enable-background:new 0 0 1986 1352.92;" xml:space="preserve">
<style type="text/css">
	.st0{fill:#E9EEF2;}
	.st1{fill:none;stroke:#F2F6F9;stroke-width:21;stroke-miterlimit:10;}
	.st2{fill:#F2F6F9;}
</style>
<g>
	<circle class="st0" cx="982.47" cy="1049.96" r="45.74"/>
	<line class="st1" x1="524.69" y1="867.62" x2="601.81" y2="944.73"/>
	<g>
		<path class="st2" d="M352.82,911.11c0.24,9.62-3.4,19.57-10.92,29.86l13.56,13.56l-14.18,14.18l-13.07-13.07
			c-6.32,5.5-12.95,10.06-19.9,13.67c-6.95,3.61-13.38,5.93-19.29,6.95l-10.16-25.52c6.23-1.18,12.56-3.43,18.99-6.77
			c6.43-3.34,12.01-7.37,16.74-12.1c8.98-8.98,11.15-15.79,6.51-20.44c-2.44-2.44-5.54-2.97-9.28-1.6
			c-3.74,1.38-9.1,4.25-16.08,8.62c-7.61,4.84-14.3,8.55-20.06,11.14c-5.77,2.59-11.89,3.63-18.39,3.12
			c-6.5-0.51-12.72-3.73-18.66-9.68c-7-7-10.57-15.45-10.69-25.35c-0.12-9.9,3.85-20.02,11.93-30.38l-13.44-13.44l14.18-14.18
			l13.2,13.2c4.9-4.08,10.03-7.58,15.38-10.5c5.36-2.92,10.63-5.01,15.82-6.28l10.75,25.17c-12.28,3.48-22.12,8.93-29.52,16.33
			c-4.65,4.65-7.32,8.75-8.03,12.3c-0.7,3.55,0.09,6.47,2.37,8.75c2.28,2.28,5.25,2.73,8.91,1.35c3.66-1.38,8.9-4.26,15.72-8.63
			c7.69-4.92,14.39-8.65,20.12-11.2c5.72-2.55,11.83-3.61,18.33-3.18c6.49,0.43,12.72,3.62,18.66,9.56
			C349.08,893.31,352.58,901.5,352.82,911.11z"/>
	</g>
	<g>
		<path class="st2" d="M560.86,682.4c-13.52,7.11-30.25,8.92-50.18,5.45l-9.77,28.84l-30.16-10.22l9.42-27.8
			c-12.27-5.13-23.42-11.37-33.45-18.72s-17.84-14.88-23.46-22.57l29.19-32.41c6.05,8.04,13.72,15.46,23,22.27
			c9.27,6.81,18.94,11.92,28.99,15.32c19.1,6.47,30.33,4.77,33.67-5.11c1.76-5.2,0.34-9.97-4.25-14.33
			c-4.6-4.35-12.46-9.96-23.58-16.82c-12.24-7.43-22.23-14.34-29.97-20.72c-7.74-6.39-13.53-14.38-17.37-23.99
			c-3.85-9.6-3.63-20.73,0.66-33.38c5.05-14.9,14.57-25.92,28.57-33.05c14-7.14,31.21-8.59,51.64-4.38l9.68-28.59l30.16,10.22
			l-9.51,28.07c9.26,4.1,17.85,8.94,25.77,14.52c7.92,5.58,14.61,11.61,20.07,18.1l-28.27,33.01
			c-13.59-15.03-28.26-25.22-44.01-30.55c-9.89-3.35-17.61-4.27-23.16-2.77c-5.55,1.5-9.15,4.68-10.79,9.53
			c-1.64,4.85-0.2,9.4,4.35,13.64c4.54,4.24,12.32,9.68,23.34,16.3c12.41,7.49,22.44,14.41,30.09,20.77
			c7.65,6.36,13.46,14.31,17.42,23.86c3.95,9.55,3.79,20.65-0.49,33.29C583.58,664.56,574.38,675.3,560.86,682.4z"/>
	</g>
	<g>
		<path class="st2" d="M384.22,361.87c-8.62,9.06-21.12,14.87-37.49,17.41v24.94h-26.08v-24.04c-10.87-0.75-21.15-2.66-30.86-5.73
			c-9.71-3.07-17.75-6.85-24.12-11.35l14.13-32.8c6.81,4.64,14.7,8.39,23.69,11.23c8.98,2.85,17.82,4.27,26.51,4.27
			c16.52,0,24.77-4.27,24.77-12.81c0-4.49-2.36-7.83-7.06-10c-4.71-2.17-12.28-4.45-22.71-6.85c-11.45-2.54-21.01-5.28-28.69-8.2
			c-7.68-2.92-14.27-7.6-19.78-14.04c-5.51-6.44-8.26-15.13-8.26-26.06c0-12.88,4.49-23.93,13.47-33.14
			c8.98-9.21,21.95-14.86,38.9-16.96v-24.71h26.08v24.26c8.26,0.75,16.19,2.25,23.8,4.49c7.61,2.25,14.38,5.17,20.32,8.76
			l-13.26,33.03c-14.49-8.09-28.55-12.13-42.16-12.13c-8.55,0-14.78,1.31-18.69,3.93c-3.91,2.62-5.87,6.03-5.87,10.22
			c0,4.2,2.32,7.34,6.95,9.44c4.63,2.1,12.09,4.27,22.38,6.51c11.59,2.55,21.19,5.28,28.8,8.2c7.61,2.92,14.2,7.56,19.78,13.93
			c5.57,6.37,8.37,15.02,8.37,25.95C397.15,342.07,392.84,352.81,384.22,361.87z"/>
	</g>
	<g>
		<path class="st2" d="M1294.4,820.24c-10.7,11.25-26.21,18.45-46.54,21.61v30.96h-32.37v-29.84c-13.49-0.93-26.26-3.3-38.31-7.11
			c-12.05-3.81-22.03-8.51-29.94-14.08l17.54-40.72c8.45,5.77,18.25,10.42,29.41,13.94c11.15,3.53,22.12,5.3,32.91,5.3
			c20.5,0,30.75-5.3,30.75-15.9c0-5.58-2.92-9.71-8.77-12.41c-5.85-2.69-15.24-5.53-28.19-8.51c-14.21-3.16-26.08-6.55-35.61-10.18
			c-9.54-3.62-17.72-9.43-24.55-17.43c-6.84-7.99-10.25-18.78-10.25-32.35c0-15.99,5.57-29.7,16.72-41.14
			c11.15-11.44,27.25-18.45,48.29-21.06v-30.68h32.37v30.12c10.25,0.93,20.1,2.79,29.54,5.58c9.44,2.79,17.85,6.42,25.22,10.88
			l-16.46,41c-17.99-10.04-35.44-15.06-52.34-15.06c-10.61,0-18.35,1.63-23.2,4.88c-4.85,3.26-7.28,7.49-7.28,12.69
			c0,5.21,2.87,9.11,8.63,11.71c5.75,2.61,15.01,5.3,27.79,8.09c14.39,3.16,26.3,6.55,35.75,10.18c9.44,3.62,17.62,9.39,24.55,17.29
			c6.92,7.91,10.38,18.64,10.38,32.21C1310.45,795.65,1305.1,808.99,1294.4,820.24z"/>
	</g>
	<g>
		<path class="st2" d="M1634.51,906.6c-13.77,14.48-33.74,23.75-59.89,27.82v39.84h-41.66v-38.4c-17.36-1.2-33.79-4.25-49.3-9.15
			c-15.51-4.9-28.35-10.95-38.54-18.12l22.57-52.4c10.88,7.42,23.49,13.4,37.84,17.95c14.35,4.55,28.47,6.82,42.35,6.82
			c26.39,0,39.58-6.82,39.58-20.46c0-7.18-3.76-12.5-11.28-15.97c-7.53-3.46-19.62-7.12-36.28-10.95
			c-18.29-4.07-33.56-8.44-45.83-13.1c-12.27-4.66-22.8-12.14-31.59-22.43c-8.8-10.28-13.19-24.16-13.19-41.63
			c0-20.58,7.17-38.22,21.52-52.94c14.35-14.72,35.07-23.75,62.15-27.1v-39.48h41.66v38.76c13.19,1.2,25.87,3.59,38.02,7.18
			c12.15,3.59,22.97,8.26,32.46,14l-21.18,52.76c-23.15-12.92-45.6-19.38-67.35-19.38c-13.66,0-23.61,2.1-29.86,6.28
			c-6.25,4.19-9.37,9.64-9.37,16.33c0,6.7,3.7,11.73,11.11,15.08c7.4,3.35,19.32,6.82,35.76,10.41c18.51,4.07,33.85,8.44,46,13.1
			c12.15,4.66,22.68,12.08,31.59,22.25c8.9,10.17,13.36,23.99,13.36,41.46C1655.17,874.95,1648.28,892.12,1634.51,906.6z"/>
	</g>
	<g>
		<path class="st2" d="M1646.98,407.84c-15.95,0.4-32.45-5.64-49.5-18.1l-22.49,22.49l-23.51-23.51l21.68-21.68
			c-9.12-10.47-16.67-21.47-22.66-32.99s-9.82-22.18-11.52-31.98l42.31-16.84c1.95,10.33,5.69,20.82,11.23,31.49
			c5.53,10.67,12.22,19.92,20.06,27.75c14.89,14.89,26.19,18.49,33.89,10.79c4.05-4.05,4.93-9.18,2.65-15.38
			c-2.29-6.2-7.06-15.09-14.3-26.66c-8.03-12.62-14.18-23.7-18.47-33.26c-4.29-9.56-6.02-19.72-5.17-30.49
			c0.84-10.77,6.19-21.09,16.05-30.95c11.61-11.61,25.62-17.53,42.03-17.73c16.41-0.21,33.2,6.39,50.37,19.78l22.28-22.28
			l23.51,23.51l-21.88,21.88c6.77,8.12,12.57,16.63,17.41,25.51c4.83,8.89,8.3,17.62,10.42,26.22l-41.73,17.83
			c-5.77-20.36-14.8-36.68-27.08-48.96c-7.71-7.71-14.51-12.14-20.4-13.31c-5.89-1.16-10.73,0.15-14.51,3.93
			c-3.78,3.78-4.53,8.71-2.24,14.78c2.29,6.07,7.06,14.75,14.31,26.06c8.15,12.75,14.34,23.87,18.57,33.36
			c4.22,9.49,5.98,19.62,5.27,30.39c-0.72,10.77-6,21.08-15.86,30.94C1676.5,401.64,1662.92,407.45,1646.98,407.84z"/>
	</g>
	<g>
		<path class="st2" d="M978.9,896.52c-6.63,6.97-16.24,11.43-28.83,13.39v19.18h-20.06V910.6c-8.36-0.58-16.27-2.05-23.73-4.41
			c-7.46-2.36-13.65-5.27-18.55-8.72l10.86-25.23c5.24,3.57,11.31,6.45,18.22,8.64c6.91,2.19,13.7,3.28,20.39,3.28
			c12.7,0,19.05-3.28,19.05-9.85c0-3.46-1.81-6.02-5.43-7.69c-3.62-1.67-9.44-3.43-17.47-5.27c-8.8-1.96-16.16-4.06-22.06-6.31
			c-5.91-2.25-10.98-5.84-15.21-10.8c-4.24-4.95-6.35-11.63-6.35-20.04c0-9.91,3.45-18.4,10.36-25.49
			c6.91-7.08,16.88-11.43,29.92-13.05v-19.01h20.06v18.66c6.35,0.58,12.45,1.73,18.3,3.46c5.85,1.73,11.06,3.97,15.63,6.74
			l-10.19,25.4c-11.14-6.22-21.95-9.33-32.42-9.33c-6.58,0-11.37,1.01-14.37,3.02c-3.01,2.02-4.51,4.64-4.51,7.86
			c0,3.23,1.78,5.65,5.35,7.26c3.56,1.61,9.3,3.28,17.21,5.01c8.91,1.96,16.29,4.06,22.15,6.31c5.85,2.25,10.92,5.82,15.21,10.71
			c4.29,4.9,6.43,11.55,6.43,19.96C988.84,881.29,985.53,889.55,978.9,896.52z"/>
	</g>
	<g>
		<path class="st2" d="M1155.39,388.9c0.37,14.7-5.2,29.91-16.69,45.63l20.73,20.73l-21.68,21.68l-19.98-19.98
			c-9.66,8.41-19.79,15.37-30.41,20.89s-20.45,9.06-29.48,10.62l-15.52-39.01c9.52-1.8,19.19-5.25,29.03-10.35
			c9.83-5.1,18.36-11.26,25.58-18.49c13.73-13.73,17.04-24.14,9.95-31.24c-3.74-3.74-8.46-4.55-14.18-2.44
			c-5.72,2.11-13.91,6.5-24.57,13.18c-11.63,7.4-21.85,13.07-30.66,17.03c-8.81,3.96-18.18,5.55-28.11,4.77
			c-9.93-0.77-19.44-5.71-28.53-14.8c-10.71-10.71-16.16-23.62-16.35-38.74c-0.19-15.12,5.89-30.6,18.23-46.43l-20.54-20.54
			l21.68-21.68l20.17,20.17c7.49-6.24,15.33-11.59,23.51-16.05c8.19-4.46,16.25-7.66,24.17-9.61l16.43,38.47
			c-18.77,5.32-33.81,13.64-45.13,24.96c-7.11,7.11-11.19,13.38-12.27,18.8c-1.07,5.43,0.14,9.89,3.62,13.37
			c3.49,3.49,8.03,4.18,13.62,2.06c5.6-2.11,13.6-6.5,24.02-13.19c11.75-7.51,22-13.22,30.75-17.12c8.75-3.89,18.09-5.51,28.02-4.86
			c9.93,0.66,19.44,5.53,28.52,14.62C1149.67,361.69,1155.02,374.21,1155.39,388.9z"/>
	</g>
	<line class="st1" x1="1511.28" y1="465.46" x2="1433.01" y2="543.74"/>
	<line class="st1" x1="1818.81" y1="820.48" x2="1740.54" y2="898.76"/>
	<line class="st1" x1="934.04" y1="178.98" x2="855.76" y2="257.25"/>
	<line class="st1" x1="507.21" y1="287.22" x2="595.54" y2="375.55"/>
	<line class="st1" x1="1449.3" y1="255.8" x2="1373.93" y2="180.43"/>
	<line class="st1" x1="1233.62" y1="959.72" x2="1310.92" y2="1037.02"/>
	<circle class="st0" cx="272.18" cy="633.83" r="45.74"/>
	<circle class="st0" cx="664.68" cy="177.81" r="45.74"/>
	<circle class="st0" cx="1339.75" cy="341.12" r="45.74"/>
	<circle class="st0" cx="1752.59" cy="588.08" r="45.74"/>
</g>
</svg>
