<?xml version="1.0" encoding="utf-8"?>
<!-- Generator: Adobe Illustrator 23.0.2, SVG Export Plug-In . SVG Version: 6.00 Build 0)  -->
<svg version="1.1" xmlns="http://www.w3.org/2000/svg" xmlns:xlink="http://www.w3.org/1999/xlink" x="0px" y="0px"
	 viewBox="0 0 1986 1352.92" style="enable-background:new 0 0 1986 1352.92;" xml:space="preserve">
<style type="text/css">
	.st0{fill:none;stroke:#F2F6F9;stroke-width:11;stroke-miterlimit:10;}
</style>
<g id="Back">
	<g>
		<line class="st0" x1="855.55" y1="470.7" x2="799.48" y2="526.77"/>
		<line class="st0" x1="1258.78" y1="959.32" x2="1202.71" y2="1015.39"/>
		<line class="st0" x1="674.15" y1="121.54" x2="618.08" y2="177.62"/>
		<line class="st0" x1="1141.62" y1="238.87" x2="1141.62" y2="318.17"/>
		<line class="st0" x1="748.93" y1="1057.16" x2="692.86" y2="1113.24"/>
		<line class="st0" x1="257.16" y1="1057.16" x2="201.09" y2="1113.24"/>
		<line class="st0" x1="1086.79" y1="186.07" x2="1142.86" y2="242.14"/>
		<line class="st0" x1="891.85" y1="549.8" x2="947.92" y2="605.87"/>
		<line class="st0" x1="1204.08" y1="1012.83" x2="1204.08" y2="1092.12"/>
		<line class="st0" x1="209.85" y1="121.54" x2="265.92" y2="177.62"/>
		<line class="st0" x1="567.16" y1="121.54" x2="623.23" y2="177.62"/>
		<line class="st0" x1="786.89" y1="959.32" x2="842.96" y2="1015.39"/>
		<line class="st0" x1="840.79" y1="1012.83" x2="920.09" y2="1012.83"/>
		<line class="st0" x1="1633.14" y1="1089.06" x2="1689.21" y2="1145.14"/>
		<line class="st0" x1="1755.91" y1="155.86" x2="1811.98" y2="211.93"/>
	</g>
</g>
<g id="Man">
</g>
</svg>
