<?xml version="1.0" encoding="utf-8"?>
<!-- Generator: Adobe Illustrator 23.0.3, SVG Export Plug-In . SVG Version: 6.00 Build 0)  -->
<svg version="1.1" xmlns="http://www.w3.org/2000/svg" xmlns:xlink="http://www.w3.org/1999/xlink" x="0px" y="0px"
	 viewBox="0 0 1986 1352.92" style="enable-background:new 0 0 1986 1352.92;" xml:space="preserve">
<style type="text/css">
	.st0{fill:#F2F6F9;}
</style>
<g id="Back">
	<g>
		<path class="st0" d="M1896.07,622.12h-683.71c0,0,0.52-133.5,85.88-133.5c84.43,0,116.07,91.62,165.95,91.62
			s41.14-145.5,128.83-145.5c67.38,0,125.22,118.19,226.22,152.42C1884.15,609.17,1896.07,622.12,1896.07,622.12z"/>
		<path class="st0" d="M301.36,332.72h667.31c0,0-32.91-100.56-101.6-100.56c-51.44,0-63.85,43.58-113.23,43.58
			c-49.39,0-82.46-109.82-157.13-109.82c-78.56,0-117.32,125.63-188.18,139.4C321.53,322.21,301.36,332.72,301.36,332.72z"/>
		<path class="st0" d="M899.33,1202.27h862.55c0,0-42.53-121.14-131.32-121.14c-66.49,0-82.53,52.5-146.36,52.5
			c-63.84,0-106.59-132.3-203.1-132.3c-101.55,0-151.64,151.35-243.24,167.93C925.4,1189.6,899.33,1202.27,899.33,1202.27z"/>
		<path class="st0" d="M927.62,1027.58h-722c0,0,23.62-110.7,91-110.7c58.15,0,107.36,66,156.38,66s73.49-146.18,169.26-146.18
			c89.09,0,160.63,153.41,230.43,166.95C912.86,1015.33,927.62,1027.58,927.62,1027.58z"/>
		<path class="st0" d="M1720.13,850.61l-28.99,7.72c-3.04,54.96-48.58,98.59-104.29,98.59c-38.89,0-72.81-21.25-90.8-52.76
			l-4.47-2.81c-33.47-21.02-43.57-65.19-22.56-98.66c2.47-3.93,6.69-6.08,11.01-6.08c2.36,0,4.75,0.64,6.88,1.98l21.4,13.45
			c3.83-9.37,9.69-18.05,17.58-25.38c2.5-2.32,5.67-3.48,8.83-3.48c3.49,0,6.96,1.4,9.52,4.15l60.45,65.12h18.72
			c0-18.74,15.2-33.95,33.95-33.95c15.29,0,28.23,10.12,32.47,24.04l0.89,0.23L1720.13,850.61z"/>
		<path class="st0" d="M400.41,565.93l-21.1,5.62c-2.22,40-35.35,71.75-75.9,71.75c-28.3,0-52.99-15.47-66.08-38.4l-3.25-2.05
			c-24.36-15.3-31.71-47.44-16.42-71.8c1.8-2.86,4.87-4.42,8.01-4.42c1.71,0,3.45,0.47,5.01,1.44l15.58,9.79
			c2.78-6.82,7.05-13.14,12.79-18.47c1.82-1.69,4.13-2.53,6.43-2.53c2.54,0,5.07,1.02,6.93,3.02l44,47.39h13.62
			c0-13.64,11.06-24.71,24.71-24.71c11.13,0,20.54,7.37,23.63,17.49l0.65,0.17L400.41,565.93z"/>
		<path class="st0" d="M1426.69,329.46l-17.16,4.57c-1.8,32.52-28.75,58.34-61.72,58.34c-23.01,0-43.09-12.58-53.73-31.22
			l-2.64-1.66c-19.81-12.44-25.79-38.57-13.35-58.38c1.46-2.33,3.96-3.6,6.52-3.6c1.39,0,2.81,0.38,4.07,1.17l12.66,7.96
			c2.26-5.54,5.74-10.68,10.4-15.02c1.48-1.37,3.35-2.06,5.22-2.06c2.06,0,4.12,0.83,5.63,2.46l35.77,38.53h11.08
			c0-11.09,8.99-20.09,20.09-20.09c9.05,0,16.7,5.99,19.21,14.22l0.52,0.14L1426.69,329.46z"/>
	</g>
</g>
<g id="Man">
</g>
</svg>
