<?xml version="1.0" encoding="utf-8"?>
<!-- Generator: Adobe Illustrator 23.0.3, SVG Export Plug-In . SVG Version: 6.00 Build 0)  -->
<svg version="1.1" xmlns="http://www.w3.org/2000/svg" xmlns:xlink="http://www.w3.org/1999/xlink" x="0px" y="0px"
	 viewBox="0 0 1986 1352.92" style="enable-background:new 0 0 1986 1352.92;" xml:space="preserve">
<style type="text/css">
	.st0{fill:#FFC774;}
	.st1{clip-path:url(#SVGID_2_);}
	.st2{fill:none;stroke:#FFA161;stroke-width:31;stroke-linecap:round;stroke-miterlimit:10;}
	.st3{fill:#DDA9CC;}
	.st4{fill:#24272D;}
	.st5{fill:#F0E8B5;}
	.st6{fill:none;stroke:#FFFFFF;stroke-width:3;stroke-miterlimit:10;}
	.st7{fill:#F8C9C9;}
	.st8{fill:none;stroke:#25282D;stroke-width:3;stroke-miterlimit:10;}
	.st9{fill:#BDCEEA;}
	.st10{fill:#231815;}
	.st11{fill:#2C61AD;}
	.st12{fill:#3361C2;stroke:#FFFFFF;stroke-width:3;stroke-miterlimit:10;}
	.st13{clip-path:url(#SVGID_4_);}
</style>
<g id="Back">
</g>
<g id="Man">
	<g>
		<path class="st0" d="M813.29,849l-84.59-91.11c-95.68-103.06-89.7-264.17,13.36-359.84l0,0c18.69-17.35,47.91-16.27,65.26,2.42
			l226.41,243.87c56.52,60.87,52.98,156.04-7.89,212.55l0,0C964.97,913.41,869.81,909.88,813.29,849z"/>
		<g>
			<defs>
				<path id="SVGID_1_" d="M808.95,849.4l-83.6-92.02c-94.56-104.09-86.83-265.12,17.26-359.68l0,0
					c18.88-17.15,48.08-15.75,65.23,3.13l223.76,246.31c55.85,61.48,51.29,156.6-10.19,212.45l0,0
					C959.93,915.45,864.81,910.88,808.95,849.4z"/>
			</defs>
			<clipPath id="SVGID_2_">
				<use xlink:href="#SVGID_1_"  style="overflow:visible;"/>
			</clipPath>
			<g class="st1">
				<line class="st2" x1="1138.49" y1="675.42" x2="1060.87" y2="719.12"/>
				<line class="st2" x1="1131.49" y1="753.77" x2="1170.09" y2="822.33"/>
				<line class="st2" x1="800.52" y1="812.51" x2="839.12" y2="881.07"/>
				<line class="st2" x1="987.47" y1="713.5" x2="1026.07" y2="782.06"/>
				<line class="st2" x1="1027.74" y1="569.48" x2="1066.34" y2="638.05"/>
				<line class="st2" x1="883.24" y1="747.09" x2="839.55" y2="669.47"/>
				<line class="st2" x1="984.56" y1="932.82" x2="940.86" y2="855.2"/>
				<line class="st2" x1="804.9" y1="740.09" x2="736.33" y2="778.69"/>
				<line class="st2" x1="1100.42" y1="826.87" x2="1031.86" y2="865.47"/>
				<line class="st2" x1="949" y1="784.53" x2="880.44" y2="823.13"/>
				<line class="st2" x1="989.18" y1="636.34" x2="920.62" y2="674.94"/>
				<line class="st2" x1="891.51" y1="447.55" x2="813.89" y2="491.24"/>
				<line class="st2" x1="884.5" y1="525.89" x2="923.1" y2="594.45"/>
				<line class="st2" x1="553.54" y1="584.63" x2="592.14" y2="653.2"/>
				<line class="st2" x1="740.49" y1="485.63" x2="779.09" y2="554.19"/>
				<line class="st2" x1="780.76" y1="341.61" x2="819.36" y2="410.17"/>
				<line class="st2" x1="636.26" y1="519.22" x2="592.56" y2="441.6"/>
				<line class="st2" x1="737.58" y1="704.94" x2="693.88" y2="627.33"/>
				<line class="st2" x1="557.91" y1="512.21" x2="489.35" y2="550.81"/>
				<line class="st2" x1="853.44" y1="599" x2="784.88" y2="637.6"/>
				<line class="st2" x1="702.02" y1="556.66" x2="633.46" y2="595.26"/>
				<line class="st2" x1="742.2" y1="408.47" x2="673.63" y2="447.07"/>
			</g>
		</g>
		<polygon class="st3" points="543.22,571.45 493.25,768.64 811.6,779.37 822.21,737.5 		"/>
		<polygon class="st4" points="1106.73,1101.79 977.27,1081.93 994.73,1035.16 1046.83,1047.25 		"/>
		<polygon class="st4" points="1238.04,1064.06 1108.57,1044.2 1126.03,997.43 1178.14,1009.52 		"/>
		<path class="st5" d="M949.3,581.99l113.13-29.07l143.18,174.42c17.53,21.35,25.68,49.53,22.44,77.58l-25.38,208.52l-92.78-1.02
			l27.88-217.9l-137.22-96.05c-25.14-22.01-41.81-52.94-46.87-87L949.3,581.99z"/>
		<path class="st4" d="M954.98,382.66c38.38-18.55,101.32-20.01,128.97-13.46c27.65,6.55,55.8,117.1,55.8,117.1l63.37,89.97
			l-62.07,39.88l-74.19-106.41l29.47-26.31c0,0-26.92,41.66-33.83,71.94h-127.9c0,0,8.12-60.03,10.39-94.32"/>
		<circle class="st3" cx="1209.81" cy="632.15" r="120.79"/>
		<path class="st3" d="M1330.6,632.15c0,205.28-166.41,371.69-371.69,371.69S587.21,837.43,587.21,632.15"/>
		<polyline class="st6" points="1085.62,418.46 1104.37,464.76 1084.51,515.5 		"/>
		<path class="st5" d="M935.13,555.17h116.43l100.01,205.21c12.24,25.12,13.85,54.54,4.41,80.98l-73.92,207.18H977.46l66.45-246.68
			l-85.08-120.72c-19.49-27.66-28.75-61.88-26.04-96.23L935.13,555.17z"/>
		<path class="st7" d="M1125.93,579.6l8.42-0.01c0,0,3.98-0.25,10.21,1.07c6.24,1.33,8.53,5.86,18.95,6.37
			c11.83,0.58,3.32,10.87-2.37,11.95c-4.45,0.84-9.81-1.37-13.4,1.38c0.98,2.6,1.19,8.31,14.5,19.55
			c7.62,6.43,21.04,8.2,17.98,24.13c-4.17,12.17-23.14,12.89-28.36,10.75c-15.24-6.25-27.3-18.99-33.59-29.34
			c-2.6-4.27-6.05-11.9-7.37-15.54"/>
		<path class="st4" d="M1100.9,527.45l56.09,42.4l-54.93,58.68l-128.08-87.47c0,0-43.97-106.05-13.5-135.86"/>
		<ellipse class="st4" cx="1098.22" cy="259.19" rx="37.63" ry="48.06"/>
		<g>
			<path class="st7" d="M1041.43,392.37c11.21,0,21.52-7.39,24.73-18.71l23.89-84.31c3.87-13.67-4.07-27.88-17.73-31.75
				c-13.67-3.87-27.88,4.07-31.75,17.73l-23.89,84.31c-3.87,13.67,4.07,27.88,17.73,31.75
				C1036.75,392.05,1039.11,392.37,1041.43,392.37z"/>
		</g>
		<path class="st7" d="M1064.93,354.93l4.5,1.24c22.26,6.16,44.65-9.43,46.59-32.45l2.26-26.76c1.51-17.84-10.01-34.18-27.31-38.77
			l0,0c-19.69-5.22-39.89,6.52-45.1,26.21l-6.76,25.51C1033.93,329.48,1045.45,349.54,1064.93,354.93z"/>
		<polyline class="st8" points="1100.24,300.05 1106.59,323.62 1097.29,323.79 		"/>
		<circle class="st4" cx="1089.02" cy="304.7" r="4.51"/>
		<circle class="st4" cx="1110.71" cy="304.7" r="4.51"/>
		<path class="st8" d="M1087.73,332.72c0,0-5.54-0.31-7.83-5.12"/>
		<path class="st4" d="M879.25,328.8c-4.97,58.42,44.43,39.43,44.43,39.43s-31.57,64.12,39.08,58.76
			c70.65-5.36,89.93-55.54,87.19-84.24c-1.09-11.43-7.04-20.3-13.77-28.84c38.72-5.96,38.13-32.51,38.13-32.51
			s62.08,24.12,61.57-23.45c-0.5-47.57-49.47-62.82-78.4-62.31c-6.58,0.11-12.43,1.33-17.92,3.1
			c-18.63,6.06-33.06,15.94-57.78,16.33c-68.3,1.09-74.86,65.58-74.86,65.58S882.61,289.26,879.25,328.8z"/>
		<path class="st7" d="M1056.22,322.32L1056.22,322.32c8.42-3.55,12.4-13.34,8.85-21.76l-5.87-13.92
			c-3.55-8.42-13.34-12.4-21.76-8.85l0,0c-8.42,3.55-12.4,13.34-8.85,21.76l5.87,13.92C1038.01,321.89,1047.8,325.87,1056.22,322.32
			z"/>
		<line class="st8" x1="1041.22" y1="288.22" x2="1049.55" y2="307.96"/>
		<path class="st9" d="M1433.19,625.59l-104.68,27.88l-15.98,4.26h-0.01c-16.1,0-29.44-11.86-31.76-27.31
			c-0.24-1.58-0.36-3.18-0.36-4.82H1433.19z"/>
		<circle class="st10" cx="1225.74" cy="580.07" r="13.39"/>
		
			<rect x="1294.68" y="609.49" transform="matrix(0.7842 -0.6205 0.6205 0.7842 -113.7669 997.0072)" class="st11" width="163.85" height="105.16"/>
		<polyline class="st6" points="1294.57,675.41 1380.36,666.83 1408.53,585.24 		"/>
		<line class="st12" x1="1359.3" y1="680.83" x2="1346.93" y2="733.92"/>
		<line class="st12" x1="1399.43" y1="649.08" x2="1453.94" y2="649.24"/>
		<path class="st9" d="M1433.19,625.59h-152.8c0-1.64,0.12-3.25,0.36-4.82c2.32-15.46,15.66-27.3,31.76-27.3h0.01l15.97,4.26h0.01
			L1433.19,625.59z"/>
		<path class="st0" d="M725.31,871.51L620.02,805.4c-119.09-74.78-155.01-231.95-80.23-351.04l0,0
			c13.56-21.6,42.06-28.11,63.66-14.55l281.82,176.96c70.35,44.17,91.56,137.01,47.39,207.35l0,0
			C888.49,894.47,795.66,915.69,725.31,871.51z"/>
		<polyline class="st6" points="1125.28,545.87 1045.39,486.36 1026.33,431.37 		"/>
		<path class="st6" d="M994.49,555.06c0,0-20.33-11.86-25.59-27.36c-5.26-15.5-26.05-83.39-26.05-83.39"/>
		<polyline class="st6" points="1055.05,781.4 1043.91,801.86 1055.05,816.03 		"/>
		<g>
			<defs>
				<path id="SVGID_3_" d="M725.31,871.51L620.02,805.4c-119.09-74.78-155.01-231.95-80.23-351.04l0,0
					c13.56-21.6,42.06-28.11,63.66-14.55l281.82,176.96c70.35,44.17,91.56,137.01,47.39,207.35l0,0
					C888.49,894.47,795.66,915.69,725.31,871.51z"/>
			</defs>
			<clipPath id="SVGID_4_">
				<use xlink:href="#SVGID_3_"  style="overflow:visible;"/>
			</clipPath>
			<g class="st13">
				<line class="st2" x1="995.83" y1="615.23" x2="932.84" y2="678.21"/>
				<line class="st2" x1="1010.18" y1="692.56" x2="1065.82" y2="748.2"/>
				<line class="st2" x1="707.26" y1="838.26" x2="762.89" y2="893.89"/>
				<line class="st2" x1="860.64" y1="692.56" x2="916.28" y2="748.2"/>
				<line class="st2" x1="860.64" y1="543.03" x2="916.28" y2="598.66"/>
				<line class="st2" x1="769.31" y1="752.98" x2="706.33" y2="690"/>
				<line class="st2" x1="916.9" y1="904.57" x2="853.91" y2="841.58"/>
				<line class="st2" x1="691.97" y1="767.33" x2="636.34" y2="822.97"/>
				<line class="st2" x1="999.95" y1="771.33" x2="944.31" y2="826.97"/>
				<line class="st2" x1="842.72" y1="771.33" x2="787.08" y2="826.97"/>
				<line class="st2" x1="841.51" y1="617.79" x2="785.87" y2="673.43"/>
				<line class="st2" x1="696.61" y1="462.27" x2="633.62" y2="525.26"/>
				<line class="st2" x1="710.96" y1="539.61" x2="766.6" y2="595.25"/>
				<line class="st2" x1="408.04" y1="685.3" x2="463.67" y2="740.94"/>
				<line class="st2" x1="561.42" y1="539.61" x2="617.06" y2="595.25"/>
				<line class="st2" x1="561.42" y1="390.07" x2="617.06" y2="445.71"/>
				<line class="st2" x1="470.09" y1="600.03" x2="407.11" y2="537.04"/>
				<line class="st2" x1="617.68" y1="751.61" x2="554.69" y2="688.63"/>
				<line class="st2" x1="392.75" y1="614.38" x2="337.12" y2="670.02"/>
				<line class="st2" x1="700.73" y1="618.38" x2="645.09" y2="674.02"/>
				<line class="st2" x1="543.5" y1="618.38" x2="487.86" y2="674.02"/>
				<line class="st2" x1="542.29" y1="464.84" x2="486.65" y2="520.48"/>
			</g>
		</g>
		<path class="st6" d="M678.58,486.26l209.27,131.66c0,0,23.49,16.6,34.3,33.46"/>
	</g>
</g>
</svg>
