<?xml version="1.0" encoding="utf-8"?>
<!-- Generator: Adobe Illustrator 23.0.2, SVG Export Plug-In . SVG Version: 6.00 Build 0)  -->
<svg version="1.1" id="레이어_1" xmlns="http://www.w3.org/2000/svg" xmlns:xlink="http://www.w3.org/1999/xlink" x="0px"
	 y="0px" viewBox="0 0 1200 1000" style="enable-background:new 0 0 1200 1000;" xml:space="preserve">
<style type="text/css">
	.st0{fill:#72A065;}
	.st1{fill:#E4EFF7;}
	.st2{fill:none;stroke:#475056;stroke-width:5;stroke-miterlimit:10;}
	.st3{fill:#24272D;}
	.st4{fill:#FFFFFF;}
	.st5{fill:#F5D0B7;}
	.st6{fill:none;stroke:#FFFFFF;stroke-width:3;stroke-linecap:square;stroke-miterlimit:10;}
	.st7{fill:none;stroke:#000000;stroke-width:3;stroke-miterlimit:10;}
	.st8{fill:#EA6F57;}
	.st9{fill:#FFBA5F;}
	.st10{fill:#F79D52;}
	.st11{fill:none;stroke:#FFFFFF;stroke-width:3;stroke-miterlimit:10;}
	.st12{fill:#E25D4B;}
</style>
<polygon class="st0" points="786.08,536.32 865.06,536.32 806.27,351.19 727.29,351.19 "/>
<rect x="731.8" y="524.22" transform="matrix(-1 -4.490998e-11 4.490998e-11 -1 1565.3444 1060.5333)" class="st0" width="101.74" height="12.1"/>
<ellipse class="st1" cx="601.69" cy="917.15" rx="595.15" ry="7.83"/>
<line class="st2" x1="545.67" y1="538.23" x2="461.34" y2="917.15"/>
<line class="st2" x1="637.01" y1="538.23" x2="552.68" y2="917.15"/>
<line class="st2" x1="1068.84" y1="537.85" x2="1153.26" y2="917.15"/>
<line class="st2" x1="977.41" y1="537.85" x2="1061.82" y2="917.15"/>
<line class="st2" x1="469" y1="537.99" x2="1126.65" y2="537.99"/>
<polygon class="st3" points="750.7,453.24 718.29,453.24 718.29,351.19 "/>
<path class="st4" d="M782.72,453.24c0.25,0.86,0.55,1.72,0.9,2.57c4.51,10.92,15.47,16.74,24.49,13.02
	c6.01-2.49,9.63-8.57,10.06-15.59c0.21-3.52-0.38-7.27-1.89-10.92c-4.51-10.92-15.48-16.74-24.5-13.02
	C783.47,432.74,779.71,443.09,782.72,453.24z"/>
<path class="st3" d="M773.72,453.24h35.45c0.21-3.52-0.38-7.27-1.89-10.92c-4.51-10.92-15.48-16.74-24.5-13.02
	C774.47,432.74,770.71,443.09,773.72,453.24z"/>
<path class="st3" d="M967.75,238.16v203.08c0,6.6-5.4,12-12,12h-8c6.6,0,12-5.4,12-12V238.16c0-6.6-5.4-12-12-12h8
	C962.35,226.16,967.75,231.56,967.75,238.16z"/>
<path class="st0" d="M959.75,238.16v203.08c0,6.6-5.4,12-12,12H582.21c-6.6,0-12-5.4-12-12V238.16c0-6.6,5.4-12,12-12h365.54
	C954.35,226.16,959.75,231.56,959.75,238.16z"/>
<rect x="597.67" y="237.88" class="st4" width="348.04" height="199.97"/>
<polygon class="st5" points="57.43,833.9 5.15,887.03 53.74,916.15 203.54,916.15 123.78,873.71 "/>
<polygon class="st5" points="352.23,849.46 318.78,916.15 510.24,916.15 430.48,873.71 "/>
<path class="st3" d="M145.19,885.54l179.92-179.82c16.18-16.17,26.8-37.07,30.33-59.68l15.39-98.69l67.34,98.17L332.52,848.01
	l114.74,34.02l108.56-174.9c20.3-32.7,19.03-74.37-3.22-105.77L447.57,449.8l-170.6-42.3l-13.29,20.85
	c-13.25,20.79-21,44.6-22.52,69.21l-7.57,122.4L29.87,829.64L145.19,885.54z"/>
<path class="st5" d="M358.84,498.46c0,0-12.31,2.31-31.2,6.67c0,0-7.23,13.69-10.67,13.95c-10.77,0.82-42.06-10.74-25.87-43.29
	c16.19-32.56,67.74-28.18,67.74-28.18"/>
<polyline class="st6" points="238.74,642.31 230.08,618.92 251.39,615.62 "/>
<polyline class="st6" points="453.68,662.47 433.81,644.67 461.34,630.9 "/>
<line class="st6" x1="373.85" y1="518.71" x2="367.46" y2="588.41"/>
<path class="st0" d="M398.39,223.08C334.68,209.06,276.97,407.5,276.97,407.5l170.6,42.3C447.57,449.8,486.92,242.56,398.39,223.08z
	"/>
<path class="st0" d="M393.59,222.43c0,0-37.21-3.27-54.91,6.78c-10.06,5.71-50.6,49.31-83.72,85.89
	c-20,22.08-7.99,58.04,21.03,63.02l171.24,29.38l5.45-61.24l-102.2-25.9l20.48-31.5"/>
<path class="st0" d="M408.21,226.21c0,0,67.72,19.64,78.79,37.49c11.08,17.85,3.21,143.81,3.21,143.81L362.69,509.03l-49.23-59.23
	l108.63-88.88"/>
<ellipse transform="matrix(0.9875 -0.1576 0.1576 0.9875 -17.5804 71.8245)" class="st3" cx="443.97" cy="146.73" rx="56.38" ry="61.14"/>
<g>
	<path class="st5" d="M416.96,273.16c10.05-1.2,18.5-8.92,20.16-19.41l12.4-78.1c2.01-12.66-6.62-24.55-19.28-26.56
		c-12.66-2.01-24.55,6.62-26.56,19.28l-12.4,78.1c-2.01,12.66,6.62,24.55,19.28,26.56C412.73,273.37,414.88,273.41,416.96,273.16z"
		/>
</g>
<path class="st5" d="M433.05,234.71l4.75,0.72c23.5,3.58,44.47-15.07,43.66-38.83l-0.95-27.62c-0.63-18.41-14.39-33.71-32.63-36.29
	l0,0c-20.76-2.93-39.96,11.52-42.89,32.28l-3.8,26.89C398.28,212.48,412.49,231.58,433.05,234.71z"/>
<polyline class="st7" points="460.45,174.33 469.81,197.64 460.33,198.95 "/>
<circle cx="451.86" cy="183.44" r="4.11"/>
<circle cx="472.89" cy="183.44" r="4.11"/>
<path class="st7" d="M462.02,210.09c0,0-9.84,4.14-17.86-2.26"/>
<path class="st3" d="M300.86,233.49c0,0-6.47,50.76,36.1,50.24c70.47-0.85,81.79-47.14,76.9-73.89
	c-1.95-10.65-8.53-18.55-15.85-26.1c38-8.33,35.41-33.22,35.41-33.22s70.67,33.5,66.57-11.12c-4.1-44.61-45.86-62.26-74.56-59.8
	c-66.71,5.73-68.68,48.22-86.57,54.34C237.38,168.67,300.86,233.49,300.86,233.49z"/>
<path class="st5" d="M420.19,202.45L420.19,202.45c8.17-4.65,11.05-15.15,6.4-23.32l-7.69-13.51c-4.65-8.17-15.15-11.05-23.32-6.4
	l0,0c-8.17,4.65-11.05,15.15-6.4,23.32l7.69,13.51C401.52,204.23,412.02,207.1,420.19,202.45z"/>
<line class="st7" x1="400.7" y1="169.43" x2="411.62" y2="188.59"/>
<circle class="st8" cx="620.39" cy="333.81" r="173.58"/>
<circle class="st9" cx="651.39" cy="333.81" r="173.58"/>
<circle class="st10" cx="651.39" cy="333.81" r="130.61"/>
<path class="st5" d="M429.25,365.95l26.73-9.99c0,0,31.19,22.09,38.97,7.05c0,0,5.03,3.34,7.43,0.85c2.4-2.5-4.15-18.21-4.15-18.21
	s3.21-13.29-5.58-22.32s-32.63-25.83-36.67-23.8c-4.04,2.03-26.73,26.53-26.73,26.53V365.95z"/>
<line class="st11" x1="288.96" y1="380.83" x2="423.62" y2="383.79"/>
<line class="st11" x1="416.44" y1="314.53" x2="322.69" y2="310.53"/>
<line class="st11" x1="360.23" y1="290.26" x2="338.39" y2="311"/>
<line class="st11" x1="344.65" y1="424.28" x2="394.91" y2="383.16"/>
<g>
	<path class="st12" d="M693.71,382.44c-6.63,6.97-16.24,11.43-28.83,13.39v19.18h-20.06v-18.49c-8.36-0.58-16.27-2.05-23.73-4.41
		s-13.65-5.27-18.55-8.72l10.86-25.23c5.24,3.57,11.31,6.45,18.22,8.64c6.91,2.19,13.7,3.28,20.39,3.28
		c12.7,0,19.05-3.28,19.05-9.85c0-3.46-1.81-6.02-5.43-7.69c-3.62-1.67-9.44-3.43-17.47-5.27c-8.8-1.96-16.16-4.06-22.06-6.31
		c-5.91-2.25-10.98-5.84-15.21-10.8c-4.24-4.95-6.35-11.63-6.35-20.04c0-9.91,3.45-18.4,10.36-25.49
		c6.91-7.08,16.88-11.43,29.92-13.05V252.6h20.06v18.66c6.35,0.58,12.45,1.73,18.3,3.46c5.85,1.73,11.06,3.97,15.63,6.74
		l-10.19,25.4c-11.14-6.22-21.95-9.33-32.42-9.33c-6.58,0-11.37,1.01-14.37,3.02c-3.01,2.02-4.51,4.64-4.51,7.86
		c0,3.23,1.78,5.65,5.35,7.26c3.56,1.61,9.3,3.28,17.21,5.01c8.91,1.96,16.29,4.06,22.15,6.31c5.85,2.25,10.92,5.82,15.21,10.71
		c4.29,4.9,6.43,11.55,6.43,19.96C703.65,367.21,700.34,375.48,693.71,382.44z"/>
</g>
</svg>
