<?xml version="1.0" encoding="utf-8"?>
<!-- Generator: Adobe Illustrator 23.0.2, SVG Export Plug-In . SVG Version: 6.00 Build 0)  -->
<svg version="1.1" id="레이어_1" xmlns="http://www.w3.org/2000/svg" xmlns:xlink="http://www.w3.org/1999/xlink" x="0px"
	 y="0px" viewBox="0 0 1200 1000" style="enable-background:new 0 0 1200 1000;" xml:space="preserve">
<style type="text/css">
	.st0{fill:#E4EFF7;}
	.st1{fill:none;stroke:#25282D;stroke-width:5;stroke-miterlimit:10;}
	.st2{fill:none;stroke:#25282D;stroke-width:5;stroke-linecap:square;stroke-miterlimit:10;}
	.st3{fill:none;stroke:#FFFFFF;stroke-width:3;stroke-linecap:square;stroke-miterlimit:10;}
	.st4{fill:#3361C2;}
	.st5{fill:#F5D0B7;}
	.st6{fill:none;stroke:#25282D;stroke-width:3;stroke-miterlimit:10;}
	.st7{fill:#24272D;}
	.st8{fill:none;stroke:#FFFFFF;stroke-width:3;stroke-miterlimit:10;}
	.st9{fill:none;stroke:#F5D0B7;stroke-width:43;stroke-linejoin:round;stroke-miterlimit:10;}
	.st10{fill:#3361C2;stroke:#FFFFFF;stroke-width:3;stroke-miterlimit:10;}
	.st11{fill:#EA6F57;}
	.st12{fill:#111316;}
	.st13{fill:#25282D;}
</style>
<g>
	<ellipse class="st0" cx="601.36" cy="833.29" rx="483.19" ry="8.59"/>
	<polyline class="st1" points="160.54,367.11 160.54,590.08 150.54,831.74 	"/>
	<line class="st1" x1="236.06" y1="590.08" x2="246.06" y2="831.74"/>
	<line class="st1" x1="367.06" y1="590.08" x2="377.06" y2="831.74"/>
	<line class="st2" x1="160.54" y1="460.73" x2="197.78" y2="460.73"/>
	<path class="st3" d="M216.41,487.33"/>
	<path class="st4" d="M197.78,502.58c0,0-40.86-81.11-40.59-135.88c0.09-18.81,3.04-60.25,81.19-63.54s135.54,85.5,135.54,85.5
		L197.78,502.58L197.78,502.58z"/>
	<g>
		<defs>
			<path id="SVGID_1_" d="M197.78,502.58c0,0-42.25-84.76-40.59-139.51c0.68-22.56,8.77-59.79,86.99-59.82
				c73.74-0.03,129.74,85.41,129.74,85.41L197.78,502.58L197.78,502.58z"/>
		</defs>
		<clipPath id="SVGID_2_">
			<use xlink:href="#SVGID_1_"  style="overflow:visible;"/>
		</clipPath>
	</g>
	<g>
		<path class="st5" d="M234.48,335.69c-0.19-0.04-0.37-0.08-0.56-0.13c-14.24-3.38-23.04-17.66-19.66-31.9l22.44-94.55
			c3.38-14.24,17.66-23.02,31.9-19.66c14.24,3.38,23.04,17.66,19.66,31.9l-22.44,94.55C262.49,329.95,248.54,338.7,234.48,335.69z"
			/>
	</g>
	<path class="st5" d="M252.84,288.71l4.83,1.86c23.9,9.21,50.3-5.57,54.94-30.76l5.39-29.29c3.6-19.52-7.34-38.81-25.95-45.74l0,0
		c-21.17-7.89-44.73,2.88-52.62,24.05l-10.22,27.43C221.39,257.26,231.93,280.66,252.84,288.71z"/>
	<path class="st5" d="M237.81,252.17L237.81,252.17c7.91-2.41,12.41-10.86,10-18.78l-2.49-8.16c-2.41-7.91-10.86-12.41-18.78-10l0,0
		c-7.91,2.41-12.41,10.86-10,18.78l2.49,8.16C221.44,250.08,229.89,254.58,237.81,252.17z"/>
	<line class="st6" x1="225.21" y1="227.02" x2="233.65" y2="242.4"/>
	<polyline class="st6" points="306.26,230.7 301.04,254.01 292.74,252.19 	"/>
	<path class="st7" d="M243.41,243.17l21.99-38.79l5.22-9.21c1.77,3.3,4.09,6.26,6.85,8.82c9.98,9.28,45.66,15.94,56.93-7.35
		c9.19-19-15.08-13.04-25.65-17.14c-16.6-6.44-25.86-19.62-52.58-13.07c-31.99,7.84-28.42,48.47-28.42,48.47
		S241.34,213.35,243.41,243.17z"/>
	<polygon class="st7" points="272,293 256.92,289.86 269.28,305.04 	"/>
	<circle class="st7" cx="288.44" cy="238.56" r="4.21"/>
	<circle class="st7" cx="313.35" cy="242.65" r="4.21"/>
	<path class="st6" d="M286.68,264.06c0,0-8.14,1.88-12.75-3.44"/>
	<path class="st5" d="M329.12,347.82c0,0,35.64-28.95,65.5,7.51s-22.37,30.15-22.37,30.15l-26.3-6.78L329.12,347.82z"/>
	<polygon class="st5" points="621.54,831.74 491.57,831.74 475.18,831.53 487.72,773.2 546.52,778.46 	"/>
	<polygon class="st5" points="738.27,508.36 659.74,586.89 649.69,596.64 614.35,546.15 653.75,514.49 	"/>
	<path class="st7" d="M425.93,470.78l-154.7,117.93H469.5v199.63h113.73V533.73c0-34.77-29.97-62.95-66.93-62.95H425.93z"/>
	<path class="st7" d="M429.58,500.48l-100.63,74.44c-36.64,27.11-94.6,13.97-116.48-27.08l-14.69-45.27l176.76-117.56
		c31.2-16.69,67.44-13.26,101.83,10.4l195.55,91.91l-49.07,98L429.58,500.48z"/>
	<path class="st8" d="M462.84,475.78L328.95,577.93c0,0-16.13,13.61-48.01,13.61"/>
	<path class="st8" d="M585.18,537.04c0,0-3.05-64.02-67.37-61.26c-12.57,0.54-54.96,0-54.96,0"/>
	<line class="st8" x1="585.18" y1="537.04" x2="585.18" y2="658.23"/>
	<line class="st2" x1="367.06" y1="590.08" x2="163" y2="590.08"/>
	<line class="st1" x1="290.94" y1="590.08" x2="281.54" y2="831.74"/>
	<polyline class="st9" points="225.54,387 242.85,396.32 351.15,360.41 	"/>
	<polyline class="st10" points="253.58,358.74 207.87,414.1 173.74,384.87 	"/>
	<path class="st11" d="M349.75,379.84c-0.88,0.41-1.79,0.75-2.72,1.01c-0.4,0.12-0.81,0.21-1.22,0.29l1.2-0.39L349.75,379.84z"/>
	<path class="st12" d="M358.61,364.09c0,9.45-4.94,17.54-11.94,20.91l-2.74,0.93l-1.2,0.4l-16.42,5.56
		c2.64-1.53,4.93-3.76,6.71-6.49c2.5-3.81,3.98-8.59,3.98-13.76c0-9.85-5.37-18.24-12.87-21.32c-1.99-0.82-4.13-1.27-6.36-1.27
		c-1.26,0-2.5,0.14-3.7,0.42l17.3-5.92l1.81-0.62l3.57-1.22c0.86-0.14,1.74-0.22,2.63-0.22C350,341.5,358.61,351.61,358.61,364.09z"
		/>
	<path class="st5" d="M467.87,388.85c-2.51,4.48,1.85,16.82,17.44,24.82s30.1,4.28,32.21,0c1.46-2.97-10.72-13.67-21.95-19.08
		C483.81,388.94,470.04,384.98,467.87,388.85z"/>
	<path class="st13" d="M339.25,343.55l-24.91,9.48c-3.15,1.2-6.67-0.38-7.87-3.53l0,0c-1.2-3.15,0.38-6.67,3.53-7.87l24.91-9.48
		c3.15-1.2,6.67,0.38,7.87,3.53h0C343.98,338.83,342.4,342.35,339.25,343.55z"/>
</g>
</svg>
