<?xml version="1.0" encoding="utf-8"?>
<!-- Generator: Adobe Illustrator 23.0.2, SVG Export Plug-In . SVG Version: 6.00 Build 0)  -->
<svg version="1.1" id="레이어_1" xmlns="http://www.w3.org/2000/svg" xmlns:xlink="http://www.w3.org/1999/xlink" x="0px"
	 y="0px" viewBox="0 0 1200 1000" style="enable-background:new 0 0 1200 1000;" xml:space="preserve">
<style type="text/css">
	.st0{fill:#E4EFF7;}
	.st1{fill:none;stroke:#475056;stroke-width:5;stroke-miterlimit:10;}
	.st2{fill:#1A264B;}
	.st3{fill:none;stroke:#FFFFFF;stroke-width:3;stroke-linecap:square;stroke-miterlimit:10;}
	.st4{fill:#EDF3D2;}
	.st5{fill:#24272D;}
	.st6{fill:#F5D0B7;}
	.st7{fill:none;stroke:#25282D;stroke-width:3;stroke-miterlimit:10;}
	.st8{fill:#004599;}
	.st9{fill:#3D4249;}
	.st10{fill:#70ACDE;}
	.st11{fill:none;stroke:#FFFFFF;stroke-width:3;stroke-miterlimit:10;}
	.st12{fill:#202B64;}
	.st13{fill:none;stroke:#1F2B64;stroke-width:8;stroke-miterlimit:10;}
	.st14{fill:#FFFFFF;}
</style>
<g>
	<ellipse class="st0" cx="592.03" cy="849.08" rx="493.94" ry="6.23"/>
	<line class="st1" x1="255.97" y1="675.48" x2="255.97" y2="848.21"/>
	<line class="st1" x1="438.2" y1="675.48" x2="438.2" y2="848.21"/>
	<rect x="212.62" y="503.93" class="st2" width="268.92" height="268.92"/>
	<rect x="359.42" y="410.59" class="st2" width="741.99" height="362.26"/>
	<line class="st3" x1="304.77" y1="503.93" x2="304.77" y2="696.54"/>
	<circle class="st3" cx="256.25" cy="546.8" r="16"/>
	<rect x="336.95" y="595.16" class="st2" width="74.62" height="24.77"/>
	<line class="st3" x1="603.97" y1="595.71" x2="304.77" y2="595.71"/>
	<line class="st1" x1="869.95" y1="675.48" x2="869.95" y2="848.21"/>
	<line class="st1" x1="1050.95" y1="675.48" x2="1050.95" y2="848.21"/>
	<path class="st4" d="M917.41,428.14l-83.49-11.52l-11.9,54.08l89.12,30.93c30.51,10.59,61.56-14.48,57.63-46.53
		c-3.92-31.95-8.15-63.75-9.92-67.88c-3.69-8.62-16.62-44.92-94.78-48.21c-78.15-3.28-115.9,68.51-115.9,68.51l161.54,144.41"/>
	
		<ellipse transform="matrix(0.1576 -0.9875 0.9875 0.1576 454.7703 1006.2882)" class="st5" cx="817.22" cy="236.58" rx="63.46" ry="58.53"/>
	<g>
		<path class="st6" d="M845.26,367.81c-10.43-1.24-19.2-9.26-20.93-20.15l-12.87-81.07c-2.09-13.14,6.87-25.48,20.01-27.57
			c13.14-2.09,25.48,6.87,27.57,20.01l12.87,81.07c2.09,13.14-6.87,25.48-20.01,27.57C849.65,368.03,847.42,368.06,845.26,367.81z"
			/>
	</g>
	<path class="st6" d="M828.55,327.9l-4.93,0.75c-24.39,3.72-46.16-15.64-45.32-40.3l0.98-28.67c0.66-19.11,14.94-34.99,33.87-37.66
		l0,0c21.55-3.04,41.48,11.96,44.52,33.51l3.94,27.92C864.65,304.82,849.9,324.65,828.55,327.9z"/>
	<polyline class="st7" points="798.04,265.23 788.32,289.42 798.16,290.78 	"/>
	<circle class="st5" cx="809.35" cy="271.58" r="4.82"/>
	<circle class="st5" cx="786.34" cy="268.83" r="4.82"/>
	<path class="st7" d="M800.88,307.69c0,0,13.06,2.06,21.67-8.83"/>
	<path class="st5" d="M965.77,326.63c0,0,6.71,52.69-37.47,52.15c-73.15-0.88-84.89-48.94-79.82-76.7
		c2.02-11.06,8.85-19.26,16.46-27.09c-39.45-8.65-36.75-34.48-36.75-34.48s-73.35,34.77-69.1-11.54
		c4.25-46.31,47.6-64.63,77.39-62.07c69.24,5.94,71.28,50.05,89.86,56.41C1031.66,259.35,965.77,326.63,965.77,326.63z"/>
	<path class="st6" d="M841.91,294.41L841.91,294.41c-8.48-4.83-11.47-15.72-6.64-24.2l7.98-14.02c4.83-8.48,15.72-11.47,24.2-6.64
		l0,0c8.48,4.83,11.47,15.72,6.64,24.2l-7.98,14.02C861.28,296.26,850.39,299.24,841.91,294.41z"/>
	<line class="st7" x1="862.13" y1="260.14" x2="850.8" y2="280.02"/>
	<line class="st3" x1="837.48" y1="414.05" x2="918.23" y2="426.13"/>
	<line class="st3" x1="896.09" y1="422.82" x2="889.51" y2="393.91"/>
	<path class="st6" d="M774.95,421.49c0,0,35.08-28.95,64.46,7.51c29.38,36.46-22.01,30.15-22.01,30.15"/>
	<polygon class="st8" points="841,462.36 669.92,462.36 569.92,391.62 741,391.62 	"/>
	<polygon class="st9" points="495.91,849.08 606.97,849.08 620.96,848.93 610.25,806.64 560.01,810.46 	"/>
	<polygon class="st9" points="404.79,643.23 505.68,705.88 518.48,713.63 543.26,642.49 489.87,636.34 	"/>
	<path class="st10" d="M684.33,492.53l190.7,107.93H630.76v209.63H527.03V555.48c0-34.77,29.97-62.95,66.93-62.95H684.33z"/>
	<path class="st10" d="M680.68,517.23l100.63,74.44c36.64,27.11,87.6,14.97,109.48-26.08l29.08-53.67L715.02,402.25
		c-31.2-16.69-69.32-7.72-90.73,21.36L474.03,627.7l77.95,64.22L680.68,517.23z"/>
	<rect x="832.49" y="503.93" class="st2" width="268.92" height="268.92"/>
	<path class="st11" d="M647.42,492.53l133.89,99.15c0,0,16.13,14.61,48.01,14.61"/>
	<path class="st11" d="M570.19,497.09c0,0,11.54-4.56,23.77-4.56s53.46,0,53.46,0"/>
	<line class="st11" x1="528.44" y1="553.79" x2="528.44" y2="674.98"/>
	<path class="st8" d="M732.31,393.91h-153.7c-4.8,0-8.69-3.89-8.69-8.69V275.65c0-4.8,3.89-8.69,8.69-8.69h153.7
		c4.8,0,8.69,3.89,8.69,8.69v109.57C741,390.02,737.11,393.91,732.31,393.91z"/>
	<circle class="st12" cx="655.46" cy="225.73" r="9.17"/>
	<path class="st13" d="M633.11,208.14c12.34-12.34,32.35-12.34,44.7,0"/>
	<path class="st13" d="M616.3,191.61c21.63-21.63,56.7-21.63,78.32,0"/>
	<path class="st13" d="M600.2,175.04c30.52-30.52,80-30.52,110.51,0"/>
	<line class="st3" x1="922.33" y1="506.93" x2="922.33" y2="699.54"/>
	<circle class="st3" cx="877.85" cy="546.8" r="16"/>
	<line class="st3" x1="893.85" y1="504.08" x2="1101.41" y2="504.08"/>
	<g>
		<circle class="st14" cx="655.46" cy="327.72" r="16.21"/>
		<path class="st14" d="M669.67,297.33c0,0-0.93,6.31-5.34,9.33s-10.63,1.63-10.63,1.63s0.93-6.31,5.34-9.33
			C663.45,295.94,669.67,297.33,669.67,297.33z"/>
	</g>
</g>
</svg>
