<?xml version="1.0" encoding="utf-8"?>
<!-- Generator: Adobe Illustrator 23.0.2, SVG Export Plug-In . SVG Version: 6.00 Build 0)  -->
<svg version="1.1" id="레이어_1" xmlns="http://www.w3.org/2000/svg" xmlns:xlink="http://www.w3.org/1999/xlink" x="0px"
	 y="0px" viewBox="0 0 1500 1300" style="enable-background:new 0 0 1500 1300;" xml:space="preserve">
<style type="text/css">
	.st0{fill:#D2E8F9;}
	.st1{fill:#9AC3E8;}
	.st2{fill:#F7F9FC;}
	.st3{fill:#F36B7F;}
	.st4{fill:#518EEE;}
	.st5{fill:#B5D6F4;}
	.st6{fill:none;stroke:#EF4C43;stroke-width:10;stroke-linecap:round;stroke-miterlimit:10;}
	.st7{fill:#E4EFF7;}
	.st8{fill:#3361C2;}
	.st9{fill:none;stroke:#1D2026;stroke-width:7;stroke-miterlimit:10;}
	.st10{fill:#F5D0B7;}
	.st11{fill:#F5D0B7;stroke:#000000;stroke-width:3;stroke-miterlimit:10;}
	.st12{fill:#000E35;}
	.st13{fill:#9FCDFF;}
	.st14{fill:none;stroke:#FFFFFF;stroke-width:3;stroke-miterlimit:10;}
	.st15{fill:none;stroke:#F5D0B7;stroke-width:40;stroke-linecap:round;stroke-linejoin:round;stroke-miterlimit:10;}
	.st16{fill:#FFC94A;}
	.st17{fill:#EF6E45;}
	.st18{fill:#3361C2;stroke:#000000;stroke-width:3;stroke-linecap:square;stroke-miterlimit:10;}
	.st19{clip-path:url(#SVGID_2_);}
	.st20{fill:none;stroke:#F8CF61;stroke-width:8;stroke-miterlimit:10;}
</style>
<g>
	<path class="st0" d="M1144.24,547.15c0,7.68-0.59,15.22-1.73,22.59H101.41c-5.67-18.84-8.72-38.82-8.72-59.51
		c0-113.9,92.34-206.23,206.23-206.23c3.05,0,6.09,0.07,9.1,0.2c23.45,1.02,44.75-13.18,53.15-35.1
		c32.01-83.61,113-142.96,207.86-142.96c79.53,0,149.32,41.73,188.65,104.49c11.67,18.61,33.32,28.7,54.97,24.95
		c10.49-1.82,21.28-2.77,32.29-2.77c81.86,0,151.47,52.42,177.1,125.51c5.16,14.72,16.34,26.66,30.77,32.57
		C1106.46,432.86,1144.24,485.6,1144.24,547.15z"/>
	<polygon class="st1" points="825.05,569.74 581.12,569.74 461.28,510.23 711.85,501.46 	"/>
	<rect x="451.28" y="364.83" class="st2" width="233.15" height="68.28"/>
	<rect x="451.28" y="280.17" class="st2" width="233.15" height="68.28"/>
	<path class="st3" d="M491.04,463.82v-44.13c0-8.93,9.9-14.32,17.4-9.47l58.02,37.52c8.89,5.75,5.67,19.47-4.85,20.67l-58.02,6.61
		C496.91,475.78,491.04,470.55,491.04,463.82z"/>
	<path class="st3" d="M707.85,424.47l10.15,27.18c2.76,7.38-2.84,15.21-10.71,14.99l-36.44-1c-9.76-0.27-14.45-12.09-7.53-18.97
		l26.29-26.17C695.33,414.79,705.02,416.91,707.85,424.47z"/>
	<path class="st4" d="M523.49,474.17c0-28.17,22.84-51.01,51.01-51.01c28.17,0,51.01,22.84,51.01,51.01"/>
	<rect x="461.28" y="457.03" class="st5" width="233.15" height="53.2"/>
	<g>
		<path class="st6" d="M651.24,363.02c-3.96,6.44-17.58-1.94-21.54,4.49c-3.96,6.43,9.66,14.81,5.7,21.25
			c-3.96,6.44-17.58-1.94-21.54,4.5c-3.96,6.44,9.65,14.82,5.69,21.25"/>
	</g>
	<rect x="548.24" y="449.49" class="st2" width="233.15" height="68.28"/>
	<circle class="st5" cx="567.86" cy="398.97" r="13.23"/>
	<circle class="st5" cx="567.86" cy="314.31" r="13.23"/>
</g>
<ellipse class="st7" cx="1172.59" cy="1167.48" rx="236.18" ry="7.83"/>
<polygon class="st8" points="905.07,816.75 864.77,879.31 971.62,823.08 945.67,794.96 "/>
<g>
	<line class="st9" x1="783.71" y1="708.69" x2="948.75" y2="708.69"/>
	<line class="st9" x1="833.31" y1="852.64" x2="998.35" y2="852.64"/>
	<line class="st9" x1="882.92" y1="996.59" x2="1047.96" y2="996.59"/>
	<line class="st9" x1="932.53" y1="1140.54" x2="1097.57" y2="1140.54"/>
	<line class="st9" x1="721.35" y1="527.04" x2="944.73" y2="1167.48"/>
	<line class="st9" x1="884.15" y1="527.04" x2="1107.53" y2="1167.48"/>
	<line class="st9" x1="734.1" y1="564.74" x2="899.14" y2="564.74"/>
</g>
<path class="st10" d="M799.58,526.98c0,0-32.74,13.94-39.96,27.43s-6.02,27.18,3.15,35.75c4.43,4.14,49.2,3.77,49.2,3.77
	l10.91-46.45L799.58,526.98z"/>
<line class="st9" x1="735.31" y1="564.74" x2="778.62" y2="564.74"/>
<polygon class="st8" points="1001.42,961.03 931.83,981.2 1051.48,1006.38 1049.33,968.2 "/>
<path class="st11" d="M768.39,582.38c0,0,12.91-29.54,19.16-28.15c6.25,1.38-3.68,29.85-3.68,29.85s12.22-32.23,18.19-29.92
	c4.65,1.8-2.78,30-2.78,30s8.93-24.62,14.16-23.52c5.24,1.09-7.64,28.68-7.64,28.68"/>
<path class="st12" d="M843.23,537.24l-51.93,50c-17.52,16.87-20.34,43.9-6.68,64.02l106.35,173.05L962,786.2l-81.57-144.38
	l68.32-42.68l43.91,360.7l63.61,12.24l2.65-412.55c0.21-23.51-4.2-46.84-12.97-68.65l-12.22-30.37l-123.38-3.06L843.23,537.24z"/>
<path class="st13" d="M919.54,364.95l12.47,83.61c2.57,17.24-4.51,34.51-18.45,44.98l-91.25,68.56l-35.34-34.42l68.99-81.35
	c0,0-33.68-110.88,24.91-141.46c53.04-27.69,77.69-6.38,92.41,15.53c11.48,17.08,22.51,56.52,31.31,76.21
	c8.81,19.69,29.14,63.92,29.14,63.92l-117.46,8.96"/>
<path class="st10" d="M693.28,310.18c-0.46,0-18.05,4.83-18.21-2.95s20.15-12.16,30.62-12.75c10.46-0.58,22.31,0.89,26.26-6.26
	c6.19-11.2-3.18-19.23-4.56-28c-1.38-8.77,0.77-13.85,6.31-13.54c5.54,0.31,5.85,19.1,17.46,26.62c12.21,7.9,21,23.08,21,23.08
	l31.69,20.68c0,0-22.77,32.25-23.69,32.4c-0.92,0.15-26.46-21.08-26.46-21.08s-2,6.62-34.62,15.08"/>
<polygon class="st13" points="794.62,294.08 760.97,351 874,440.44 887.74,349.77 "/>
<path class="st14" d="M850.3,421.77c-4.48-24.81-7.97-63.32,5.72-90.98"/>
<line class="st15" x1="899.49" y1="221.9" x2="921.43" y2="299.33"/>
<path class="st10" d="M901.54,281.46l-4.13,1.14c-20.45,5.66-41-8.66-42.79-29.8l-2.08-24.57c-1.38-16.38,9.19-31.39,25.08-35.6l0,0
	c18.09-4.79,36.63,5.99,41.42,24.08l6.21,23.43C930.01,258.08,919.44,276.51,901.54,281.46z"/>
<path class="st16" d="M1079.08,235.46c4.55,53.65-47.63,58.21-47.63,58.21s28.87,58.89-35.74,53.97
	c-64.61-4.92-82.24-51.01-79.74-77.37c1-10.5,6.44-18.64,12.59-26.49c-35.41-5.47-34.87-29.86-34.87-29.86s-56.77,22.15-56.31-21.54
	c0.46-43.69,45.24-57.69,71.7-57.23c6.02,0.1,11.37,1.22,16.39,2.85c17.04,5.57,30.23,15.64,52.84,16
	c62.46,1,68.46,36.23,68.46,36.23S1076,199.15,1079.08,235.46z"/>
<polyline class="st10" points="853.13,228.65 845.14,255.58 855.7,255.47 "/>
<circle cx="863.58" cy="233.6" r="4.95"/>
<circle class="st17" cx="698.72" cy="341.37" r="32.51"/>
<path class="st18" d="M869.39,259.75c0,0,4.92-0.63,4.38-5.68"/>
<path class="st10" d="M908.64,251.56l-0.2-0.09c-7.68-3.24-11.31-12.17-8.07-19.84l5.48-12.99c3.24-7.68,12.17-11.31,19.84-8.07
	l0.2,0.09c7.68,3.24,11.31,12.17,8.07,19.84l-5.48,12.99C925.25,251.16,916.32,254.79,908.64,251.56z"/>
<line class="st18" x1="924.32" y1="217.2" x2="915.53" y2="238.01"/>
<path class="st14" d="M948.75,599.14c0,0,13.98-7.88,26.79-21.06c15.54-15.99,19.85-32.62,19.85-32.62"/>
<circle class="st5" cx="664.81" cy="483.63" r="13.23"/>
<path class="st14" d="M919.54,364.95l12.47,83.61c1,6.73,0.54,13.47-1.24,19.8"/>
<g>
	<defs>
		<circle id="SVGID_1_" cx="698.72" cy="341.37" r="32.51"/>
	</defs>
	<clipPath id="SVGID_2_">
		<use xlink:href="#SVGID_1_"  style="overflow:visible;"/>
	</clipPath>
	<g class="st19">
		<g>
			<line class="st20" x1="672" y1="316.85" x2="734.92" y2="347"/>
			<line class="st20" x1="662.62" y1="338.69" x2="755.85" y2="326.23"/>
			<line class="st20" x1="732.62" y1="362" x2="664.15" y2="351.08"/>
		</g>
	</g>
</g>
<polyline class="st14" points="760.97,351 850.29,421.67 855.95,446.31 786.96,527.66 "/>
</svg>
