<?xml version="1.0" encoding="utf-8"?>
<!-- Generator: Adobe Illustrator 23.0.3, SVG Export Plug-In . SVG Version: 6.00 Build 0)  -->
<svg version="1.1" id="레이어_1" xmlns="http://www.w3.org/2000/svg" xmlns:xlink="http://www.w3.org/1999/xlink" x="0px"
	 y="0px" viewBox="0 0 171.8 171.8" style="enable-background:new 0 0 171.8 171.8;" xml:space="preserve">
<g id="computer" transform="translate(0 0)">
	<path id="패스_390" d="M94.51,43.61H8.24C3.69,43.62,0,47.3,0,51.85v10.51c0.03,1.39,1.18,2.49,2.57,2.47
		c1.35-0.03,2.44-1.12,2.47-2.47V51.85c0-1.77,1.43-3.2,3.2-3.21h86.28c1.77,0,3.2,1.44,3.2,3.21v47.66H5.03V74.11
		c-0.03-1.39-1.18-2.49-2.57-2.47C1.12,71.67,0.03,72.76,0,74.11v34.92c0,2.15,0.85,4.22,2.36,5.76l0.06,0.06
		c0.02,0.02,0.04,0.04,0.06,0.06c1.54,1.51,3.61,2.36,5.76,2.36h29.94v10.5h-9.6c-2.82,0-5.1,2.29-5.11,5.11v4.35
		c0,2.82,2.29,5.1,5.11,5.11h44.2c2.82,0,5.1-2.29,5.11-5.11v-4.35c0-2.82-2.29-5.1-5.11-5.11H62.3v-10.5h32.21
		c2.16,0,4.23-0.85,5.76-2.36l0.06-0.06l0.06-0.06c1.51-1.53,2.36-3.6,2.36-5.76V51.85C102.74,47.3,99.06,43.62,94.51,43.61z
		 M72.85,132.86v4.35c0,0.04-0.03,0.07-0.07,0.07H28.58c-0.04,0-0.07-0.03-0.07-0.07v-4.35c0-0.04,0.03-0.07,0.07-0.07h31.16h0.04
		h0.04h12.95C72.82,132.79,72.85,132.82,72.85,132.86z M57.27,127.76H43.22v-10.5h14.05V127.76z M8.24,112.22
		c-0.83,0-1.63-0.32-2.22-0.9c-0.01-0.01-0.03-0.03-0.05-0.04s-0.03-0.03-0.04-0.04c-0.58-0.59-0.9-1.39-0.9-2.22v-4.47h92.68v4.47
		c0,0.83-0.32,1.63-0.9,2.22c-0.01,0.01-0.03,0.03-0.04,0.04s-0.03,0.03-0.05,0.04c-0.6,0.58-1.39,0.9-2.22,0.9L8.24,112.22z"/>
	<path id="패스_391" d="M159.51,29.48h-37.99c-6.78,0.01-12.27,5.5-12.28,12.28v87.4c0.01,6.78,5.5,12.27,12.28,12.28h13.12
		c1.39,0.03,2.54-1.08,2.57-2.47c0.03-1.39-1.08-2.54-2.47-2.57c-0.03,0-0.07,0-0.1,0h-13.12c-4,0-7.24-3.25-7.25-7.25v-87.4
		c0-4,3.25-7.24,7.25-7.25h37.99c4,0,7.24,3.25,7.25,7.25v87.4c0,4-3.25,7.24-7.25,7.25H146.4c-1.39-0.03-2.54,1.08-2.57,2.47
		c-0.03,1.39,1.08,2.54,2.47,2.57c0.03,0,0.07,0,0.1,0h13.12c6.78-0.01,12.27-5.5,12.28-12.28v-87.4
		C171.78,34.98,166.29,29.49,159.51,29.48z"/>
	<path id="패스_392" d="M154.72,56.97c-4.19,0-7.59,3.41-7.59,7.6c0,4.19,3.41,7.59,7.6,7.59c4.19,0,7.59-3.4,7.59-7.59
		C162.32,60.37,158.92,56.97,154.72,56.97z M154.72,67.12c-1.41,0-2.56-1.15-2.55-2.57c0-1.41,1.15-2.56,2.57-2.55
		c1.41,0,2.55,1.15,2.55,2.56C157.28,65.98,156.14,67.12,154.72,67.12L154.72,67.12z"/>
	<path id="패스_393" d="M154.72,74.74c-4.19,0-7.59,3.41-7.59,7.6c0,4.19,3.41,7.59,7.6,7.59c4.19,0,7.59-3.4,7.59-7.6
		C162.32,78.14,158.92,74.74,154.72,74.74z M154.72,84.89c-1.41,0-2.56-1.15-2.55-2.57c0-1.41,1.15-2.56,2.57-2.55
		c1.41,0,2.55,1.15,2.55,2.56C157.28,83.75,156.14,84.89,154.72,84.89L154.72,84.89z"/>
	<path id="패스_394" d="M162.58,44.12c0-2.68-2.17-4.84-4.85-4.85h-34.42c-2.68,0-4.84,2.17-4.85,4.85v5.09
		c0,2.68,2.17,4.85,4.85,4.85h34.42c2.68,0,4.85-2.17,4.85-4.85L162.58,44.12z M157.54,49.03h-34.05v-4.73h34.05L157.54,49.03z"/>
	<g id="share" transform="translate(22.809 28.173)">
		<path id="패스_409" d="M40,51.52c-1.9,0-3.7,0.89-4.86,2.39l-9.43-5.26c0.23-0.65,0.34-1.33,0.34-2.02
			c0-0.69-0.12-1.38-0.35-2.03l9.42-5.26c2.06,2.68,5.91,3.19,8.59,1.13c2.68-2.06,3.19-5.91,1.13-8.59s-5.91-3.19-8.59-1.13
			c-1.51,1.16-2.4,2.96-2.4,4.87c0,0.69,0.12,1.38,0.35,2.03L24.8,42.9c-2.06-2.68-5.91-3.19-8.59-1.13s-3.19,5.91-1.13,8.59
			s5.91,3.19,8.59,1.13c0.43-0.33,0.81-0.72,1.14-1.15l9.42,5.26c-1.13,3.19,0.55,6.7,3.74,7.82c3.19,1.13,6.7-0.55,7.82-3.74
			c1.13-3.19-0.55-6.7-3.74-7.82C41.4,51.64,40.7,51.52,40,51.52z M40,31.41c2.33,0,4.21,1.89,4.21,4.21c0,2.33-1.89,4.21-4.21,4.21
			c-2.33,0-4.21-1.89-4.21-4.21c0,0,0,0,0,0C35.79,33.3,37.68,31.41,40,31.41z M19.94,50.84c-2.33,0-4.21-1.89-4.21-4.21
			c0-2.33,1.89-4.21,4.21-4.21s4.21,1.89,4.21,4.21C24.15,48.95,22.27,50.84,19.94,50.84z M40,61.86c-2.33,0-4.21-1.89-4.21-4.21
			c0-2.33,1.89-4.21,4.21-4.21c2.33,0,4.21,1.89,4.21,4.21c0,0,0,0,0,0C44.21,59.98,42.32,61.86,40,61.86z"/>
	</g>
</g>
</svg>
