<?xml version="1.0" encoding="utf-8"?>
<!-- Generator: Adobe Illustrator 23.0.3, SVG Export Plug-In . SVG Version: 6.00 Build 0)  -->
<svg version="1.1" id="레이어_1" xmlns="http://www.w3.org/2000/svg" xmlns:xlink="http://www.w3.org/1999/xlink" x="0px"
	 y="0px" viewBox="0 0 335 112" style="enable-background:new 0 0 335 112;" xml:space="preserve">
<style type="text/css">
	.st0{fill:#2053B2;}
	.st1{fill:none;stroke:#FFFFFF;stroke-width:2;stroke-miterlimit:10;}
	.st2{fill:#FFFFFF;}
</style>
<g>
	<g id="그룹_16" transform="translate(551.33 74.369)">
		<path id="패스_74" class="st0" d="M-348.44-43.48c0,6.19,0.03,11.75-0.04,17.3c-0.01,0.73,0.73,2.16-0.83,2.13
			c-1.33-0.02-0.69-1.31-0.7-2.01c-0.05-6.08-0.05-12.16-0.01-18.24c0-0.69-0.45-1.67,0.4-2.04c1.16-0.51,1.6,0.66,2.13,1.33
			c4.34,5.5,8.65,11.01,12.96,16.54c0.29,0.37,0.59,0.72,1.26,1.54v-16.65c0-0.59-0.01-1.18,0-1.77c0.01-0.49-0.06-1.03,0.68-1.1
			c0.87-0.07,0.92,0.49,0.92,1.12c0,2.62,0,5.23,0,7.85c0,3.89,0.02,7.77-0.02,11.65c0,0.6,0.41,1.45-0.48,1.76
			c-0.93,0.32-1.32-0.49-1.77-1.08c-4.43-5.64-8.85-11.28-13.28-16.93C-347.47-42.38-347.75-42.68-348.44-43.48z"/>
		<path id="패스_75" class="st0" d="M-296.94-3.78c2.17,0.91,3.82,1.98,4.29,4.2c0.82,3.82-1.23,6.83-5.44,7.22
			c-3.86,0.36-7.76,0.18-11.65,0.22c-0.46,0-1.12,0.12-1.12-0.62c0-0.92,0.77-0.72,1.31-0.73c3.46-0.08,6.93-0.03,10.39-0.21
			c3.39-0.18,5-1.73,5-4.47c0-2.71-1.64-4.35-4.99-4.56c-3.35-0.2-6.76-0.08-10.13-0.16c-0.56-0.01-1.52,0.46-1.58-0.63
			s0.9-0.77,1.5-0.78c2.96-0.05,5.92,0.02,8.87-0.1c3.29-0.12,5.14-1.77,5.16-4.39c0.02-2.47-1.75-4.11-4.94-4.3
			c-3.03-0.17-6.08-0.11-9.12-0.19c-0.59-0.02-1.56,0.29-1.43-0.82c0.1-0.82,0.92-0.52,1.45-0.52c2.87-0.01,5.75-0.05,8.62,0.05
			c2.9,0.1,5.64,0.7,6.76,3.86C-292.95-7.75-294.2-5.52-296.94-3.78z"/>
		<path id="패스_76" class="st0" d="M-306.16-46.46c2.86,0.02,5.73-0.26,8.43,1.13c4.63,2.3,7.11,7.46,6.01,12.51
			c-0.89,4.73-4.83,8.29-9.62,8.68c-3.27,0.3-6.58,0.12-9.87,0.19c-0.77,0.01-1.28-0.1-1.27-1.07c0.04-3.04,0.01-6.08,0.01-9.12
			c0-0.5-0.03-1.02,0.71-1.06c0.9-0.06,0.89,0.54,0.89,1.15c0,2.36,0,4.73,0,7.09c0,0.75-0.14,1.63,1.04,1.61
			c3.45-0.07,6.94,0.4,10.31-0.72c4.33-1.47,6.99-5.82,6.32-10.35c-0.36-4.48-3.89-8.04-8.36-8.44c-3.11-0.24-6.24-0.15-9.36-0.24
			c-0.59-0.02-1.55,0.3-1.46-0.8c0.07-0.89,0.92-0.53,1.43-0.54C-309.37-46.49-307.76-46.46-306.16-46.46z"/>
		<path id="패스_77" class="st0" d="M-347.97-6.88c0-2.03-0.03-4.06,0.02-6.08c0.02-0.63-0.46-1.71,0.87-1.64
			c1.08,0.06,0.71,0.98,0.71,1.56c0.04,3.29,0,6.59,0.03,9.88c-0.02,1.1,0.05,2.19,0.18,3.28c0.65,4.36,3.29,6.71,7.27,6.52
			c4.53-0.22,7.01-2.52,7.25-7.11c0.21-4.13,0.1-8.27,0.17-12.41c0.01-0.66-0.38-1.71,0.85-1.71s0.84,1.06,0.83,1.71
			c-0.08,4.47,0.38,8.96-0.24,13.41c-0.7,4.95-4.09,7.8-8.79,7.65c-5.56-0.18-8.76-3.11-9.08-8.48c-0.13-2.19-0.02-4.39-0.02-6.59
			L-347.97-6.88z"/>
		<path id="패스_78" class="st0" d="M-400.14-24.24c-0.92,0.38-1.55,0.39-2.04-0.26c-0.4-0.43-0.75-0.91-1.04-1.43
			c-2.06-4.9-5.9-5.97-10.78-5.38c-1.59,0.19-2.04,0.59-1.9,2.08c0.08,1.27,0.08,2.53,0.01,3.8c-0.02,0.61,0.27,1.49-0.85,1.44
			s-0.72-0.96-0.73-1.53c-0.05-1.94,0.04-3.89-0.04-5.83c-0.04-1.11,0.33-1.46,1.43-1.44c2.45,0.07,4.9,0.07,7.35,0.01
			c4.24-0.11,6.67-2.26,6.79-5.93c0.13-3.67-2.16-5.97-6.41-6.25c-2.61-0.17-5.24-0.09-7.85-0.14c-0.56-0.01-1.31,0.13-1.23-0.8
			c0.06-0.74,0.72-0.56,1.18-0.56c2.7,0,5.41-0.05,8.11,0.07c4.05,0.17,6.72,2.15,7.63,5.47c0.97,3.55-0.26,6.55-3.85,8.66
			c-1.06,0.62-0.83,0.97-0.32,1.67C-403.18-28.49-401.69-26.39-400.14-24.24z"/>
		<path id="패스_79" class="st0" d="M-224.3-24.26c-0.66,0.51-1.61,0.38-2.11-0.28c-0.05-0.07-0.1-0.14-0.14-0.22
			c-0.28-0.42-0.57-0.84-0.87-1.25c-4.1-5.67-4.1-5.62-11.05-5.26c-1.28,0.07-1.55,0.51-1.5,1.65c0.08,1.43,0.03,2.87,0.01,4.3
			c0,0.56,0.15,1.27-0.73,1.32c-1.08,0.06-0.87-0.76-0.91-1.4c0-0.08,0-0.17,0-0.25c-0.3-7.11-0.3-7.11,6.89-7.11
			c1.43,0.08,2.87-0.05,4.26-0.39c3.06-0.9,4.46-2.86,4.3-6.24c0.01-2.84-2.17-5.21-5-5.42c-2.93-0.28-5.9-0.19-8.85-0.29
			c-0.6-0.02-1.56,0.24-1.46-0.81c0.07-0.85,0.92-0.54,1.44-0.54c2.7-0.01,5.41-0.06,8.1,0.08c3.67,0.2,6.5,2.35,7.24,5.3
			c0.96,3.78-0.15,6.66-3.7,8.76c-1.16,0.68-0.94,1.09-0.34,1.87c0.77,1,1.48,2.05,2.22,3.08
			C-225.77-26.33-225.05-25.31-224.3-24.26z"/>
		<path id="패스_80" class="st0" d="M-382.58-3.19c0.11,5.52,4.67,9.91,10.19,9.8c1.51-0.03,3-0.4,4.35-1.09
			c0.53-0.27,1.03-0.57,1.52-0.91c0.48-0.32,0.93-0.88,1.49-0.18c0.74,0.92-0.27,1.19-0.71,1.5c-3.1,2.34-7.19,2.91-10.81,1.51
			c-4.36-1.28-7.44-5.18-7.66-9.72c-0.39-4.55,1.19-8.38,5.16-10.81c3.95-2.53,9.01-2.52,12.96,0.01c0.58,0.33,1.9,0.7,1.04,1.81
			c-0.77,1.01-1.28-0.18-1.82-0.52c-3.67-2.38-7.42-2.07-11.03-0.07C-381.02-10.13-382.86-6.74-382.58-3.19z"/>
		<path id="패스_81" class="st0" d="M-268.05,7.9c-2.11,0-4.21,0.01-6.32-0.01c-0.51,0-1.07-0.04-0.99-0.78
			c0.05-0.52,0.47-0.66,0.91-0.66c4.3-0.01,8.6-0.01,12.9,0c0.47,0,0.84,0.19,0.86,0.7c0.03,0.72-0.52,0.75-1.03,0.75
			C-263.83,7.9-265.94,7.9-268.05,7.9z"/>
		<path id="패스_82" class="st0" d="M-375.6-23.92c-2.02,0-4.05,0.01-6.07-0.01c-0.54,0-1.31,0.18-1.29-0.74
			c0.01-0.68,0.6-0.71,1.11-0.72c4.13-0.01,8.26-0.01,12.39,0c0.5,0,1.09-0.01,1.15,0.67c0.08,0.95-0.68,0.78-1.23,0.79
			C-371.56-23.91-373.58-23.92-375.6-23.92z"/>
		<path id="패스_83" class="st0" d="M-375.98-45.03c-1.94,0-3.88,0-5.82-0.01c-0.5,0-1.1,0.01-1.15-0.67
			c-0.08-0.95,0.69-0.78,1.23-0.79c4.05-0.02,8.09-0.02,12.14,0c0.54,0,1.33-0.18,1.28,0.74c-0.04,0.85-0.8,0.71-1.36,0.72
			C-371.77-45.02-373.88-45.03-375.98-45.03z"/>
		<path id="패스_84" class="st0" d="M-267.95-14.68c2.02,0,4.05-0.01,6.07,0c0.47,0,1.1-0.14,1.16,0.59
			c0.08,0.88-0.6,0.87-1.19,0.87c-4.13,0-8.26,0-12.39,0c-0.51,0-1.08-0.06-1.07-0.76c0.01-0.72,0.6-0.69,1.09-0.69
			C-272.16-14.68-270.06-14.67-267.95-14.68z"/>
		<path id="패스_85" class="st0" d="M-268.15-2.86c-1.95,0-3.89,0.03-5.83-0.02c-0.5-0.01-1.3,0.32-1.37-0.62
			c-0.07-0.89,0.63-0.84,1.22-0.84c4.06,0,8.12,0,12.18,0c0.59,0,1.28-0.07,1.23,0.82c-0.05,0.95-0.84,0.63-1.34,0.64
			C-264.09-2.84-266.12-2.86-268.15-2.86z"/>
		<path id="패스_86" class="st0" d="M-267.24-34.69c-2.02,0-4.04,0.01-6.06-0.01c-0.45,0-1.09,0.17-1.16-0.57
			c-0.08-0.85,0.54-0.9,1.16-0.9c4.12,0,8.25,0,12.37,0c0.54,0,1.05,0.11,1.07,0.77c0.02,0.75-0.59,0.69-1.07,0.69
			C-263.03-34.68-265.13-34.69-267.24-34.69z"/>
		<path id="패스_87" class="st0" d="M-375.75-34.69c-1.95,0-3.89,0.02-5.83-0.02c-0.5-0.01-1.3,0.32-1.37-0.62
			c-0.07-0.89,0.63-0.84,1.22-0.84c4.06,0,8.12,0,12.18,0c0.59,0,1.29-0.07,1.24,0.82c-0.05,0.95-0.85,0.62-1.35,0.63
			C-371.69-34.66-373.72-34.69-375.75-34.69z"/>
		<path id="패스_88" class="st0" d="M-266.93-25.39c1.95,0,3.89-0.01,5.83,0.01c0.59,0,1.29,0.02,1.2,0.88
			c-0.07,0.7-0.73,0.57-1.2,0.57c-4.06,0.02-8.12,0.02-12.18,0c-0.47,0-1.11,0.14-1.19-0.58c-0.1-0.87,0.59-0.88,1.18-0.88
			C-271.15-25.4-269.04-25.39-266.93-25.39z"/>
		<path id="패스_89" class="st0" d="M-267.28-46.5c2.03,0,4.06-0.02,6.09,0.01c0.54,0.01,1.33-0.17,1.33,0.72
			c0,0.63-0.6,0.73-1.12,0.73c-4.14,0.01-8.29,0.01-12.43,0c-0.54,0-1.06-0.11-1.05-0.78c0.01-0.72,0.61-0.68,1.1-0.68
			C-271.34-46.51-269.3-46.5-267.28-46.5z"/>
	</g>
	<g id="그룹_17" transform="translate(445.797 53.997)">
		<path id="패스_90" class="st0" d="M-373.55-12.05c0.47,0.63,0.97,1.24,1.41,1.88c6.79,9.88,13.51,19.8,20.4,29.61
			c1.22,1.39,1.29,3.44,0.18,4.91c-2.74,4.73-5.23,9.61-7.93,14.36c-0.63,1.1-1.52,2.03-2.59,2.71c-4.25,2.61-8.62,5.02-12.89,7.6
			c-1.24,0.75-2.01,0.8-3.01-0.43c-5.44-6.78-10.97-13.47-16.41-20.25c-0.42-0.59-0.55-1.34-0.34-2.04
			c6.84-12.67,13.73-25.31,20.66-37.93C-373.99-11.76-373.82-11.83-373.55-12.05z"/>
		<path id="패스_91" class="st0" d="M-396.73-45.92c1.85,2.65,3.58,5.25,5.44,7.74c0.4,0.53,1.29,0.68,1.93,1.05
			c0.3,0.15,0.55,0.39,0.73,0.67c0.05,0.1-0.4,0.66-0.52,0.63c-1.78-0.49-1.74,1.11-2.14,1.96c-6.18,13.09-12.32,26.19-18.44,39.31
			c-0.37,0.77-0.75,1.53-1.31,2.65c-3-3.63-5.76-6.95-8.49-10.28c-4.24-5.16-8.47-10.32-12.69-15.48c-2.54-3.1-1.95-6.52,1.48-8.52
			c10.56-6.16,21.12-12.31,31.68-18.47C-398.37-45.06-397.66-45.42-396.73-45.92z"/>
		<path id="패스_92" class="st0" d="M-360.78-35.89c4.7,2.74,9.1,5.78,13.89,7.97c4.61,2.11,6.13,5.03,5.77,10.05
			c-0.5,6.97-0.12,14-0.14,21c0.1,0.88,0,1.77-0.29,2.6c-2.44,4.69-5,9.32-7.7,14.28c-0.7-0.92-1.19-1.51-1.62-2.14
			c-6.83-9.95-13.63-19.93-20.53-29.84c-1.07-1.22-1.17-3.01-0.23-4.33c3.3-5.81,6.42-11.72,9.62-17.57
			C-361.68-34.49-361.28-35.08-360.78-35.89z"/>
		<path id="패스_93" class="st1" d="M-436.73-26.84l49.27,28.99l51.21-29.95"/>
		<path id="패스_94" class="st0" d="M-433.14-16.12c3.58,4.34,7,8.48,10.41,12.64c3.32,4.05,6.64,8.09,9.9,12.18
			c0.47,0.56,0.67,1.3,0.55,2.02c-3.69,8.04-7.47,16.03-11.41,24.4c-3.19-1.88-6.23-3.62-9.2-5.47c-0.45-0.43-0.69-1.04-0.67-1.66
			c-0.02-14.41-0.01-28.82,0.03-43.23C-433.54-15.38-433.41-15.53-433.14-16.12z"/>
		<path id="패스_95" class="st0" d="M-392.3-7.5v21.26l14.49-10.63L-392.3-7.5z"/>
		<path id="패스_96" class="st0" d="M-395.97,27.09c-0.94,0.7-1.79,1.52-2.52,2.43c-2.81,4.96-5.5,9.99-8.44,15.36l-15.28-8.91
			c3.8-8.12,7.54-16.1,11.28-24.08l0.92-0.68c0.34,0.8,0.75,1.56,1.23,2.28c3.11,3.9,6.26,7.77,9.45,11.6
			c0.78,0.94,1.4,2.42,3.16,1.71C-396.12,26.79-395.86,27.26-395.97,27.09z"/>
		<path id="패스_97" class="st0" d="M-373.88-15.7c-1.38-2-2.51-3.63-3.63-5.25c-3.19-4.64-6.35-9.3-9.61-13.88
			c-0.85-0.98-0.98-2.4-0.31-3.52c1.65-3.29,3.17-6.65,4.86-10.24l20.2,11.79C-366.19-29.81-369.93-22.95-373.88-15.7z"/>
		<path id="패스_98" class="st0" d="M-405.4,45.79l9.16-16.82l18.02,21.89c-3.05,1.77-5.91,3.45-8.81,5.08
			c-0.37,0.12-0.78,0.08-1.12-0.12C-393.85,52.53-399.53,49.21-405.4,45.79z"/>
		<path id="패스_99" class="st0" d="M-342.55,29.92c-1.49-2.15-2.94-4.33-4.52-6.41c-0.41-0.53-1.26-0.71-1.9-1.08
			c-0.29-0.18-0.56-0.38-0.83-0.6c0.23-0.26,0.48-0.5,0.74-0.72c0.59-0.43,1.45-0.68,1.79-1.25c1.89-3.24,3.66-6.56,5.75-9.8
			c0.13,6.6,0.61,13.17-0.03,19.7L-342.55,29.92z"/>
		<path id="패스_100" class="st0" d="M-389.28-38.16l-6.01-8.7c2.32-1.53,4.75-2.88,7.27-4.05c0.99-0.38,2.53,0.68,4.15,1.18
			L-389.28-38.16z"/>
		<path id="패스_101" class="st0" d="M-356.92,37.79l7.77-14.28l5.14,7.42l-12.45,7.25L-356.92,37.79z"/>
		<path id="패스_102" class="st2" d="M-385.05,8.44l7.26-5.32l-3.09-2.27L-385.05,8.44z"/>
		<path id="패스_103" class="st0" d="M-396.09,24.92l-8.01-9.67c-0.18-0.27-0.38-0.52-0.61-0.75c-4.63-3.65-4.39-7.44-1.72-12.57
			c5.91-11.34,11.03-23.09,16.47-34.67c0.37-0.79,0.77-1.58,1.33-2.72c0.68,0.9,1.22,1.55,1.7,2.25c3.66,5.3,7.27,10.63,10.97,15.9
			c0.59,0.84,0.81,2.5,2.59,1.78c0.1-0.04,0.54,0.4,0.55,0.63c-0.07,0.28-0.23,0.53-0.46,0.7c-1.91-0.89-1.93,0.94-2.4,1.79
			c-6.35,11.57-12.67,23.17-18.95,34.78C-395.03,23.12-395.48,23.86-396.09,24.92z"/>
		<line id="선_109" class="st1" x1="-440.79" y1="-29.17" x2="-391.52" y2="-0.19"/>
		<path id="패스_104" class="st2" d="M-392.68-7.73v21.26l3.98-2.92l6.33-10.77L-392.68-7.73z"/>
		<path id="패스_105" class="st0" d="M-392.68-1.96v2.28l4.85,2.81l5.47-3.23l-1.68-1.23l-3.8,2.22L-392.68-1.96z"/>
	</g>
</g>
</svg>
