<?xml version="1.0"?>
<svg xmlns="http://www.w3.org/2000/svg" xmlns:xlink="http://www.w3.org/1999/xlink" version="1.1" id="Capa_1" x="0px" y="0px" viewBox="0 0 58 58" style="enable-background:new 0 0 58 58;" xml:space="preserve" width="512px" height="512px" class=""><g><path style="fill:#F9F9FC" d="M54.392,19.5H3.608C1.616,19.5,0,17.884,0,15.892V4.108C0,2.116,1.616,0.5,3.608,0.5h50.783  C56.384,0.5,58,2.116,58,4.108v11.783C58,17.884,56.384,19.5,54.392,19.5z" data-original="#556080" class="" data-old_color="#556080"/><path style="fill:#1F3E57" d="M54.392,38.5H3.608C1.616,38.5,0,36.884,0,34.892V23.108C0,21.116,1.616,19.5,3.608,19.5h50.783  c1.993,0,3.608,1.616,3.608,3.608v11.783C58,36.884,56.384,38.5,54.392,38.5z" data-original="#424A60" class="" data-old_color="#424A60"/><path style="fill:#F9F9FC" d="M54.392,57.5H3.608C1.616,57.5,0,55.884,0,53.892V42.108C0,40.116,1.616,38.5,3.608,38.5h50.783  c1.993,0,3.608,1.616,3.608,3.608v11.783C58,55.884,56.384,57.5,54.392,57.5z" data-original="#556080" class="" data-old_color="#556080"/><circle style="fill:#15151E" cx="9.5" cy="10" r="3.5" data-original="#7383BF" class="active-path" data-old_color="#7383BF"/><circle style="fill:#15151E" cx="49" cy="8.5" r="1" data-original="#7383BF" class="active-path" data-old_color="#7383BF"/><circle style="fill:#15151E" cx="45" cy="8.5" r="1" data-original="#7383BF" class="active-path" data-old_color="#7383BF"/><circle style="fill:#15151E" cx="51" cy="11.5" r="1" data-original="#7383BF" class="active-path" data-old_color="#7383BF"/><circle style="fill:#15151E" cx="47" cy="11.5" r="1" data-original="#7383BF" class="active-path" data-old_color="#7383BF"/><circle style="fill:#15151E" cx="41" cy="8.5" r="1" data-original="#7383BF" class="active-path" data-old_color="#7383BF"/><circle style="fill:#15151E" cx="43" cy="11.5" r="1" data-original="#7383BF" class="active-path" data-old_color="#7383BF"/><circle style="fill:#15151E" cx="37" cy="8.5" r="1" data-original="#7383BF" class="active-path" data-old_color="#7383BF"/><circle style="fill:#15151E" cx="39" cy="11.5" r="1" data-original="#7383BF" class="active-path" data-old_color="#7383BF"/><circle style="fill:#15151E" cx="33" cy="8.5" r="1" data-original="#7383BF" class="active-path" data-old_color="#7383BF"/><circle style="fill:#15151E" cx="35" cy="11.5" r="1" data-original="#7383BF" class="active-path" data-old_color="#7383BF"/><circle style="fill:#15151E" cx="9.5" cy="29" r="3.5" data-original="#7383BF" class="active-path" data-old_color="#7383BF"/><circle style="fill:#15151E" cx="49" cy="27.5" r="1" data-original="#7383BF" class="active-path" data-old_color="#7383BF"/><circle style="fill:#15151E" cx="45" cy="27.5" r="1" data-original="#7383BF" class="active-path" data-old_color="#7383BF"/><circle style="fill:#15151E" cx="51" cy="30.5" r="1" data-original="#7383BF" class="active-path" data-old_color="#7383BF"/><circle style="fill:#15151E" cx="47" cy="30.5" r="1" data-original="#7383BF" class="active-path" data-old_color="#7383BF"/><circle style="fill:#15151E" cx="41" cy="27.5" r="1" data-original="#7383BF" class="active-path" data-old_color="#7383BF"/><circle style="fill:#15151E" cx="43" cy="30.5" r="1" data-original="#7383BF" class="active-path" data-old_color="#7383BF"/><circle style="fill:#15151E" cx="37" cy="27.5" r="1" data-original="#7383BF" class="active-path" data-old_color="#7383BF"/><circle style="fill:#15151E" cx="39" cy="30.5" r="1" data-original="#7383BF" class="active-path" data-old_color="#7383BF"/><circle style="fill:#15151E" cx="33" cy="27.5" r="1" data-original="#7383BF" class="active-path" data-old_color="#7383BF"/><circle style="fill:#15151E" cx="35" cy="30.5" r="1" data-original="#7383BF" class="active-path" data-old_color="#7383BF"/><circle style="fill:#15151E" cx="9.5" cy="48" r="3.5" data-original="#7383BF" class="active-path" data-old_color="#7383BF"/><circle style="fill:#15151E" cx="49" cy="46.5" r="1" data-original="#7383BF" class="active-path" data-old_color="#7383BF"/><circle style="fill:#15151E" cx="45" cy="46.5" r="1" data-original="#7383BF" class="active-path" data-old_color="#7383BF"/><circle style="fill:#15151E" cx="51" cy="49.5" r="1" data-original="#7383BF" class="active-path" data-old_color="#7383BF"/><circle style="fill:#15151E" cx="47" cy="49.5" r="1" data-original="#7383BF" class="active-path" data-old_color="#7383BF"/><circle style="fill:#15151E" cx="41" cy="46.5" r="1" data-original="#7383BF" class="active-path" data-old_color="#7383BF"/><circle style="fill:#15151E" cx="43" cy="49.5" r="1" data-original="#7383BF" class="active-path" data-old_color="#7383BF"/><circle style="fill:#15151E" cx="37" cy="46.5" r="1" data-original="#7383BF" class="active-path" data-old_color="#7383BF"/><circle style="fill:#15151E" cx="39" cy="49.5" r="1" data-original="#7383BF" class="active-path" data-old_color="#7383BF"/><circle style="fill:#15151E" cx="33" cy="46.5" r="1" data-original="#7383BF" class="active-path" data-old_color="#7383BF"/><circle style="fill:#15151E" cx="35" cy="49.5" r="1" data-original="#7383BF" class="active-path" data-old_color="#7383BF"/></g> </svg>
